<?xml version="1.0" encoding="UTF-8"?>
<svg id="_Слой_1" data-name="Слой 1" xmlns="http://www.w3.org/2000/svg" xmlns:xlink="http://www.w3.org/1999/xlink" viewBox="0 0 426 499">
  <defs>
    <style>
      .cls-1 {
        fill: #242628;
      }

      .cls-2 {
        fill: #4a4d50;
      }

      .cls-3 {
        fill: #1e2d3a;
      }

      .cls-4 {
        fill: #c993b2;
      }

      .cls-5 {
        fill: #434544;
      }

      .cls-6 {
        fill: #2154e0;
      }

      .cls-7 {
        fill: #4570ab;
      }

      .cls-8 {
        fill: #0b1217;
      }

      .cls-9 {
        fill: #305a7d;
      }

      .cls-10 {
        fill: #263a42;
      }

      .cls-11 {
        fill: #29353e;
      }

      .cls-12 {
        fill: #9a9ca7;
      }

      .cls-13 {
        fill: #1d23aa;
      }

      .cls-14 {
        fill: #8a8e98;
      }

      .cls-15 {
        fill: #1c3246;
      }

      .cls-16 {
        fill: #437ca9;
      }

      .cls-17 {
        fill: #0f1362;
      }

      .cls-18 {
        fill: #454647;
      }

      .cls-19 {
        fill: #4171a3;
      }

      .cls-20 {
        fill: #1c2e3a;
      }

      .cls-21 {
        fill: #191fed;
      }

      .cls-22 {
        fill: #d2e1eb;
      }

      .cls-23 {
        fill: #30436f;
      }

      .cls-24 {
        fill: #413f45;
      }

      .cls-25 {
        fill: #474a4d;
      }

      .cls-26 {
        fill: #686b73;
      }

      .cls-27 {
        fill: #344878;
      }

      .cls-28 {
        fill: #d897bc;
      }

      .cls-29 {
        fill: #2b5c77;
      }

      .cls-30 {
        fill: #0f181d;
      }

      .cls-31 {
        fill: #656666;
      }

      .cls-32 {
        fill: #56a4d9;
      }

      .cls-33 {
        fill: #6e7f86;
      }

      .cls-34 {
        fill: #374e82;
      }

      .cls-35 {
        fill: #7f848c;
      }

      .cls-36 {
        fill: #b2e7df;
      }

      .cls-37 {
        fill: #376a8a;
      }

      .cls-38 {
        fill: #65828f;
      }

      .cls-39 {
        fill: #2d2e2e;
      }

      .cls-40 {
        fill: #305069;
      }

      .cls-41 {
        fill: #39708f;
      }

      .cls-42 {
        fill: #4581aa;
      }

      .cls-43 {
        fill: #8eb3cb;
      }

      .cls-44 {
        fill: #224997;
      }

      .cls-45 {
        fill: #3f7ea4;
      }

      .cls-46 {
        fill: #343637;
      }

      .cls-47 {
        fill: #3b6985;
      }

      .cls-48 {
        fill: #010202;
      }

      .cls-49 {
        fill: #9db5eb;
      }

      .cls-50 {
        fill: #383838;
      }

      .cls-51 {
        fill: #db96bc;
      }

      .cls-52 {
        fill: #6f7175;
      }

      .cls-53 {
        fill: url(#_Безымянный_градиент_43);
      }

      .cls-54 {
        fill: #4c6260;
      }

      .cls-55 {
        fill: #303031;
      }

      .cls-56 {
        fill: #647676;
      }

      .cls-57 {
        fill: #8bbcde;
      }

      .cls-58 {
        fill: #0d123e;
      }

      .cls-59 {
        fill: #adc5ea;
      }

      .cls-60 {
        fill: #24304e;
      }

      .cls-61 {
        fill: #2f4170;
      }

      .cls-62 {
        fill: #9bb0e3;
      }

      .cls-63 {
        fill: #080d17;
      }

      .cls-64 {
        fill: #606060;
      }

      .cls-65 {
        fill: #0d181e;
      }

      .cls-66 {
        fill: #7ea29d;
      }

      .cls-67 {
        fill: #526d6f;
      }

      .cls-68 {
        fill: #394c5e;
      }

      .cls-69 {
        fill: #7ea39d;
      }

      .cls-70 {
        fill: #1d2124;
      }

      .cls-71 {
        fill: #a0bfc5;
      }

      .cls-72 {
        fill: #a4b6c7;
      }

      .cls-73 {
        fill: #64676b;
      }

      .cls-74 {
        fill: #a5b8e8;
      }

      .cls-75 {
        fill: #050608;
      }

      .cls-76 {
        fill: #a2a6b1;
      }

      .cls-77 {
        fill: #39b8ab;
      }

      .cls-78 {
        fill: #161721;
      }

      .cls-79 {
        fill: #6a8293;
      }

      .cls-80 {
        fill: #060809;
      }

      .cls-81 {
        fill: #213747;
      }

      .cls-82 {
        fill: #181d28;
      }

      .cls-83 {
        fill: #dbdfef;
      }

      .cls-84 {
        fill: #586365;
      }

      .cls-85 {
        fill: #4f82ac;
      }

      .cls-86 {
        fill: #1c2767;
      }

      .cls-87 {
        fill: #4d70a7;
      }

      .cls-88 {
        fill: #373e3f;
      }

      .cls-89 {
        fill: #2a5357;
      }

      .cls-90 {
        fill: #334b56;
      }

      .cls-91 {
        fill: #4b6674;
      }

      .cls-92 {
        fill: #2c8c8a;
      }

      .cls-93 {
        fill: #54f5ed;
      }

      .cls-94 {
        fill: #739692;
      }

      .cls-95 {
        fill: #466aab;
      }

      .cls-96 {
        fill: #1a2f3d;
      }

      .cls-97 {
        fill: #354a55;
      }

      .cls-98 {
        fill: #0f2140;
      }

      .cls-99 {
        fill: #2e5772;
      }

      .cls-100 {
        fill: #53565b;
      }

      .cls-101 {
        fill: #8e9c9e;
      }

      .cls-102 {
        fill: #9da6b0;
      }

      .cls-103 {
        fill: #749190;
      }

      .cls-104 {
        fill: #719795;
      }

      .cls-105 {
        fill: #79858a;
      }

      .cls-106 {
        fill: #6b799d;
      }

      .cls-107 {
        fill: #748f92;
      }

      .cls-108 {
        fill: #4d7bc0;
      }

      .cls-109 {
        fill: #4a5d68;
      }

      .cls-110 {
        fill: #202f53;
      }

      .cls-111 {
        fill: #385e7d;
      }

      .cls-112 {
        fill: #454546;
      }

      .cls-113 {
        fill: #54a9d7;
      }

      .cls-114 {
        fill: #a0738d;
      }

      .cls-115 {
        fill: #171e1d;
      }

      .cls-116 {
        fill: #5f7371;
      }

      .cls-117 {
        fill: #3947e3;
      }

      .cls-118 {
        fill: #4f5e5e;
      }

      .cls-119 {
        fill: #b8e6e2;
      }

      .cls-120 {
        fill: #80838f;
      }

      .cls-121 {
        fill: #76787d;
      }

      .cls-122 {
        fill: #48eedb;
      }

      .cls-123 {
        fill: #686f74;
      }

      .cls-124 {
        fill: #53f9f6;
      }

      .cls-125 {
        fill: #0d2156;
      }

      .cls-126 {
        fill: #3b4955;
      }

      .cls-127 {
        fill: #284c69;
      }

      .cls-128 {
        fill: #40504d;
      }

      .cls-129 {
        fill: #7f5f73;
      }

      .cls-130 {
        fill: #8b929f;
      }

      .cls-131 {
        fill: #d0e1eb;
      }

      .cls-132 {
        fill: #705b6b;
      }

      .cls-133 {
        fill: #5e6062;
      }

      .cls-134 {
        fill: #4ffbe5;
      }

      .cls-135 {
        fill: #4284aa;
      }

      .cls-136 {
        fill: #7f818c;
      }

      .cls-137 {
        fill: #b0b6c6;
      }

      .cls-138 {
        fill: #25415a;
      }

      .cls-139 {
        fill: #000100;
      }

      .cls-140 {
        fill: #3e7a9d;
      }

      .cls-141 {
        fill: #2f466d;
      }

      .cls-142 {
        fill: #376b8c;
      }

      .cls-143 {
        fill: #98cbcb;
      }

      .cls-144 {
        fill: #030405;
      }

      .cls-145 {
        fill: #554a53;
      }

      .cls-146 {
        fill: #264566;
      }

      .cls-147 {
        fill: #474f59;
      }

      .cls-148 {
        fill: #5f87e4;
      }

      .cls-149 {
        fill: #0c0f28;
      }

      .cls-150 {
        fill: #244669;
      }

      .cls-151 {
        fill: #26445e;
      }

      .cls-152 {
        fill: #14185c;
      }

      .cls-153 {
        fill: #4c4e54;
      }

      .cls-154 {
        fill: #878ea7;
      }

      .cls-155 {
        fill: #4b78ba;
      }

      .cls-156 {
        fill: #152529;
      }

      .cls-157 {
        fill: #172236;
      }

      .cls-158 {
        fill: #325875;
      }

      .cls-159 {
        fill: #576f6a;
      }

      .cls-160 {
        fill: #88b5b2;
      }

      .cls-161 {
        fill: #4969b3;
      }

      .cls-162 {
        fill: #9ac7e3;
      }

      .cls-163 {
        fill: #3a648e;
      }

      .cls-164 {
        fill: #0e161e;
      }

      .cls-165 {
        fill: #2c2f30;
      }

      .cls-166 {
        fill: #4663aa;
      }

      .cls-167 {
        fill: #585fc5;
      }

      .cls-168 {
        fill: #020203;
      }

      .cls-169 {
        fill: #5c5c5c;
      }
    </style>
    <linearGradient id="_Безымянный_градиент_43" data-name="Безымянный градиент 43" x1="222.12" y1="456.79" x2="592.81" y2="519.77" gradientTransform="translate(-193 -270)" gradientUnits="userSpaceOnUse">
      <stop offset="0" stop-color="#5698d6"/>
      <stop offset="1" stop-color="#5d83dd"/>
    </linearGradient>
  </defs>
  <path class="cls-53" d="M100,61l2.74-.15c4.82,4.9,8.81,10.57,12.15,16.57l-.89,2.58c1.97,3.16,4.42,5.03,7.34,5.63,1.85-1.63,3.41-1.84,4.66-.63-1.09-2.84,3.95-5.06,6-3l4.49-1.94c1.29-2.96,3.13-4.31,5.51-4.06,4.2.39,6-1.68,9-4v1c5.6,4.77,16.09,1.92,13-8-8.22.05-16.24-13.49-1.84-9.2,3.02.9,11.51,5.85,9.84,9.2l2.7.45c3.56,5.87,6.59,2.06,6.06-3.38l1.24-2.07c3.92-2.99,7.91-7.11,13-8,1.29,2.49-3.45,7.35-6,7l-.55,3.05c.88,2.11,1.33,5.34-1.45,5.95,1.44,1.12,2.31,2.33,2.62,3.63,6.08-4.72,10.65-5.24,10.83,3.6l2.55,2.78,2.13-1.57c8.22.49,16.33-1.61,24.32-6.29l4.56.86c1.2-.2,2.71.1,4,0,.71-.3,1.35-.57,2,0,3.05,1.79,7.04,2.69,11.97,2.69,5.82.84,11.98,3.71,14.03,9.31,2.95-1.9,7.57-2.53,8,2-6.23,6.29-7.93,12.12-5.09,17.51l-.91,2.49,3.31,3.81c4.21.58,6.87,2.58,7.97,6,2.6,12.58,8.5,19.29,22.05,18.69,3.87,1.9,6.46,5.68,7.76,11.35,7.43-.29,14.41.75,20.92,3.14,1.31-.67,3.05-.19,5.21,1.41,2.7-.39,4.63.14,5.79,1.59l6.29.3c6.97,3.77,13.21,4.67,18.71,2.7,1.84-2.03,2.1-1.66,2,1,.71-.26,1.8-.55,2.11-.08,8.62,12.92,17.57,32.31,22.57,46.91,2.28,6.65,8.05,35.54,5.62,40.29-.34.67-.81,1.29-1.31,1.88,2.34,6.4,2.73,13.45,1.15,21.13l2.3,3.04c5.33,4,12.63,12.87.94,10.73-7.59-6.12-9.01,1.76-9.42,8.49l-1.96,1.61c-.03,1.93-1.06,4.07-3.08,6.42l1.08,9.36c1.15,4.71-2.43,13.2-6.34,7.22-1.27-9.64-9.04-6.06-9.66,2,.64,5.03-6.29,13.34-11,15,2.16,3.31-8.73,16.07-11.23,17.31-1.71.84-7.36,1.01-8.05-1.4-.58-6.05-2.59-8.86-8.72-5.91l-1.04,2.17c-4.77,1.97-9.42,3.25-13.96,3.83.58,2.91-1.17,3.34-3,1-2.66,1.5-6.68,3.69-8,0-1.17.6-2.17.6-3,0-1.66-.56-2.99-1.89-4-4-6.57,1.49-10.43.29-11.57-3.6-1.02-16.81-5.3-31.23-20.98-40.71l-30.16-19.34c-1.11-1.29-.86-2.61-.02-4.01,2.36-3.92,35.67,0,41.17,1.01,21.46,3.92,29.15,13.05,41.43,30.06,7.08,8.22,1.23-5.42-1.26-9.2-16.48-24.98-39.31-26.27-67.07-24.84-11.79.95-21.33-5.29-4.55-9.14,22.12-5.08,48.19-4.64,70.64-2.94,16.38,1.12,1.32-3.61-5.81-4.25-29.26-2.62-61.96,2.54-90.11,10.68l-3.71-.72c-2.52.78-2.78-.05-1-2l-2.38-2.82c-7.91-22.91-16.16-45.43-24.77-67.55-5.85,24.46-13.66,46.84-26.09,70.3-.34.65-.95,1.16-1.59,1.68s-1.41.98-2.18,1.38c-.18,3.77-1.28,11.06-6,10-2.3-3.25-5.67-3.66-10.11-1.22l-3.47.32c-19.41-3.03-41.45-3.42-58.66,7.36-10.93,6.85,9.39-1.14,13.02-2.59,8.08-2.46,35.91-6.21,42.19-2.18,3.63,2.34-2.63,7.29-5.24,8.14-10.71,4.89-20.75,11.21-29.3,19.3-3.67,3.48-9.04,8.97-.26,3.73,4.66-4.11,36.41-29.48,41.93-25.79,4.8,3.2-1.95,7.85-5.35,9.57-7.17,6.94-14.89,15.35-19.21,24.47-2.52,5.3-2.08,7.71,2.12,1.12,6.98-14.74,17.09-25.15,30.35-31.23,2.56-1.33,4.38,2.65,2,4,.44.62-2.86,3.65-2.9,3.42-.1-.55,2.75-3,3.9-2.42,1.89-.21,3.89.46,6,2,1.45.44,1.83,1.77,1.14,4.02,3.63,2.21,5.25,4.54,4.86,6.98,3.06.24,5.91.72,8.57,1.45-2.75,9.31,15.03,12.91,13.64,2.02l1.79-1.47c.95-1.61,2.84-2.25,5.68-1.91,2.9-1.83,5.34-2.19,7.32-1.09-.15-3.86,3.77-3.41,5,0,3.29-1.77,5.63-4.44,7-8l.23-1.25c6.66-2.97,6.21-10.62,4.61-16.6l1.16-1.15c3.2,2.17,5.8,3.54,9.91,4.01,21.12,8.79,50.92,30.09,54.19,54.26.83,6.15.58,7.09-6.1,7.74-5.67,3.24-13.04,3.73-19,1l-2.48-.58c2.09-17.47-4.14-38.92-18.67-50.02-1.74-1.33-5.47-3.85-3.17-.92,12.15,15.46,20.63,30.27,19.56,51.11-9.42.47-18.83.94-28.23,1.41-6.74,2.69-14.15,3.97-22.24,3.85.35,1.08-.64,1.62-1.76,2.15-.75,2.02-3.45.94-4-1-.97,3.75-5.85,3.95-5.35-.42l-2.65-1.58-2.78,1.63c-11.3-.38-22.58.08-33.86,1.39l-1.36-1.02c-1.07,3.62-6.06,2.22-8.88,1.15l-6.12-.15c.57,2.76-2.07,4.08-4,2,.11,3-5.79,3.59-7,1-.27.89-.6.87-1,0-6.2-.92-12.77-.55-19.72,1.12-3.69,4.71-7.03,5.47-10.01,2.3-1.25,1.11-2.34,1.52-3.96.99-3.42-1.13-8.13-22.95-6.82-26.99-2.98-.66-4.01,2.43-3.08,9.26l1.3,8.6-1.7,1.74c.19.46.33.91.27,1.34-.09.67-11.09,4.76-12.6,4.49-6.56-4.44-10.91-6.35-18.27-8.97-.63-.22-.66-1.01-.41-1.85.37-1.67,1.92-3.08,4.65-4.22-4.1-2.77-7.31-6.27-9.63-10.5-1.9.13-3.23-.3-4.02-1.28-.06-.59-.95-1.48-1-2-2.92-.36-3.27-6.81-1.66-8.35l-.34-3.65c-2.53-1.15-2.53-1.86,0-3v-7.08c2.42-8.27,1.08-11.58-4-9.92,1.47,2.3.42,3.09-2,2-2.84,5.83-5.17,7.49-7,5-3.01.63-2.4-14.37-2-15.09.42-.76,1.2-1.15,2-1.41-.96-.11-1.54-.59-1.68-1.51l6.79-11.79c5.54-13.78-10.44-.91-13.77,4.06-2.63,3.62-8.09,3.93-6.34-1.25-4.13-2.82,1.19-8.89,4.14-11.48,8.73-6.04,15.2-13.46,19.41-22.25l2.45-1.26c5.21-16.67,4.4-34.52,2-51.62.95-9.38,1.94-18.74,3.95-27.96-1.01-2.72.63-7.31,4.05-7.42,1.1-11.01,9.89-21.01,19-27-.65-2.65.68-3.99,4-4l-.4-2.42c8.33-5.33,13.09-11.77,14.3-19.3l2.1-1.28c-2.33-2.1,1.56-5.62,4-4l.08-1.75c12.31-4.77,2.37-25.85-4.29-32.78-1.94-3.62-9.89-24.64-1.23-19.07,2.5,7.52,7.32,13.72,14.44,18.61Z"/>
  <path class="cls-22" d="M315,346l.8,2.23c-11.34,9.14-.41,4.15,4.85.24,6.32-.73,4.87,6.65.34,8.53l1.21,1.95c-3.18,3.95-6.25,7.97-9.21,12.05l.65,2.37c-3.23,3.2-6.35,6.58-8.65,10.63,1.33,2.81-1.97,7.05-5,6-.83,4.51-2.83,6.85-6,7-1.51,1.69-10.01,15.68-6.1,13.92.81-1.19,2.18-1.83,4.1-1.92-.99-2.95,1.5-4.54,4-3,1.65.05,2,.85,1.9,2.31h9.37c4.97.16,7.21,1.72,6.72,4.69l-1.18,1.12c-6.65-.67-13.26-.45-19.82.88l-1.04,2.65c-11.61,5.65-20.52,16.14-23.6,28.74l-2.37,1.61h-11.49c-4.35-2.14-8.13.13-11.97.05s-6.88-3.1-10.03-3.11c-3.46,0-5.92,3.4-9.5,3.06-1.88-2.64-2.88-4.97-3-7l-1.06-2c1.76-2.99,1.84-6.67,1.06-10l-1.5-.26c-1.81-8.12-7.26-12.76-13.8-17.23-1.98-2.09-2.12-4.58-.7-7,5.73-7.97,10.3-15.69,10.09-25.9,1.58-3.67,5.9-1.53,8.29.49l19.88,15.69c4.16,1.79,6.74,4.19,7.74,7.21l11.37,5.99c9.52,5.81,18.47,2.31,4.98-4.36l-9.35-7.63-3.82-.6-25.29-18.71c-6.38-6.91-12.82-13.42-19.89-19.69-.86.82-2.05.16-2-1-7.83-2.34-9.83-4.34-6-6,1.31.12,2.68.76,4,1l2.73-1.55c3.83.64,7.68,1.09,11.54,1.31,23.43,1.33,47.59,1.83,71.72-.76,5.51-1.56,11.18-2.9,17-4,2.58-.17,5.53.32,8,0Z"/>
  <path class="cls-36" d="M135,353c1.59-.24,2.38.61,2.39,2.57,4.57-.92,8.39-.29,11.45,1.91l14.16-1.49,22.55-.53c5.24-2.47,9.89-.75,4.45,3.53-7.12,5.84-18,11.35-26.8,14.9l-4.2.1c-1.68,1.3-3.04,2.86-4.1,4.66-9.89,6.07-8.92,8.46.87,2.09.98,1.04,2.06.75,3.23.25.08-3.8,18.96-12.45,20.74-11.94s1.96.96,1.26,2.94c-.25,3.66-2.21,7.31-5.9,10.93-1.48,3.55-3.52,5.9-6.1,7.07-1.89,6.56-.24,11.08,5.39,14.64.54,5.46-.59,11.25-3.39,17.36,1.36,1.71,1.66,4.2.91,7.46,1.82,4.57,1.86,7.75.09,9.54,2.8.52,2.58,1.17,0,2,3.03,2.59-1.13,5.7-4,7-3.67.36-5.73,2.82-11,2-.4,1.72-1.06,1.38-2-1-3.59-7.69-7.94-14.87-13.04-21.53-6.65-6.81-29.73-9.8-38.96-7.47.25.78.41,1.76-.15,2.23-5.72,4.81-7.88,6.94-13.01,12.62-.15.17-.47.18-.84.15-2.3,3.83-4.57,7.63-6.81,11.43l-2.19-.43c-6.77-4.91-9.1-5.25-10-14,6.79-1.95,9.91-4.7,12-12-1.8-2.46,0-5.52,3-5l2.29-.57c2.72,4.07,6.62,4.92,11.71,2.57.57-3.02,8.01-10.05,11-8,.44-3.77,4.43-6.14,8-5l.83-2.74c14.54-8.48,7.62-6.97-2.18-2.26l-3.65.99c-.76,3.73-3.76,5.73-9,6,.07,3.43-4.08,5.84-7,4-7.92,1.86-8.3-1.16-6.02-7.79l-.62-1.79c2.17-6.15,2.36-12.75.56-19.79,0-10.33.15-18,12.43-15.77,1.84-1.71,3.73-3.33,5.66-4.86.33-.87.67-.87,1,0,7.44.24,13.44-1.76,18-6,3-.91,4.99-.5,7-1Z"/>
  <path class="cls-83" d="M344,386c4.64,4.99,7.78,14.23,7,21,7.48,7.83,9.78,16.81,10.8,27.27l1.2,4.73c2.55,0,2.67.11,1,2-5.13,4.11-4.65,7.35-13.52,7.06-3.35-.11-7.66-3.02-9.48.94l-1.21-1.01c-1.93-11.8-6.02-23.83-17.67-29.25l-1.11-2.74c-3.7-.26-6.04-1.26-7-3-5.2-4.7-11.95-1.68-18.5-2.99l.5-4.01c-1.08-3.5,3.35-9.95,7-10l-.49-2.61,9.87-13.97,2.63-.42c-1-3.36,2.34-9.9,6-10-.55-3.35.88-8.37,5-9,5.38-2.52,10.38,7.48,12.6,11.95l5.4,14.05Z"/>
  <path class="cls-82" d="M321,416c14.28,6.3,19.05,17.78,20,33,.57,9.12-3.22,16.29-7,24-.3.62-.63.6-1,0l-1.4-1.78c2.42-6.48,4.27-13.39,4.88-20.31.49-5.46-1.38-10.36-5.49-11.9-.81.86-1.48.19-2-2l-2.73-.68c-10.19-17.08-39.37-16.19-47.5,2.66-2.58,5.98-4.46,29.62,4.76,29.96,5.01-1.61,10.1-2.82,15.25-3.62,4.63,4.85,9.37,7.41,14.23,7.68,2.55-2.25,6.13-3.08,9-1,1.95-3.12,4.28-5.45,7-7,2.23-5.81,2.53-12.01,1.99-18.13l1.01-.87c4.08,1.71,3.44,10.61,2.7,14.69-2.55,4.88-3.45,9.66-2.7,14.31-2.36,7.77-7.16,11.14-14.84,7.2l-3.16-.2c-.83.33-1.24,1.6-3.53,1.94-4.07.62-8.9-.37-12.38-2.53-1.61-1-3.49-4.03-4.74-4.26-.83-.16-7.2,3.72-10.91,3.88-15.37.67-18.43-21.68-16.45-33.03,2.53-14.5,13.63-27.46,27-33,9.25-1.97,18.91-1.69,28,1Z"/>
  <path class="cls-51" d="M214,437c1.63,1.53,3.41,2.11,5.34,1.74l.66,2.26c1.35.67,3.97,4.4,6.99,4.01l-3.99,2.99c-2.57-.23-4.78-1.06-7.46-1.05-14.76.06-33.11-.36-47.54,1.05.21-2.81,3.48-4.37,4-7,6.68.38,7.59-1.27,7-8-4.18-.98-4.33-13.13,0-14,.06-6.28,2.35-8.6,6.88-6.95,13.12-3.14,16.7,1.4,23.13,11.63,1.05,1.68,5.5,8.85,5.63,10.15.11,1.14.2,2.28-.64,3.18Z"/>
  <path class="cls-164" d="M34,193c.85,2.02.32,10.67.35,10.16.72-12.53,1.65-24.97,3.4-37.4,7.8-13.28,5.62.68,4.09,7.74l-1.85,15.88c2.46,17.06,3.2,34.97-1.99,51.63-3.5,13.62-14.38,18.18-22.99,27.51-3.07,3.33-2.01,4.75-3.01,7.49-.1.8-.44,1.14-1,1,.38,3.28-2.63,4.07-4.5,1.69l-.5-8.69c2.92-9.68,15.07-13.94,21.01-22.49,7.84-11.29,5.83-35.5,5.98-49.02.02-1.69-.64-4.45,1.02-5.49Z"/>
  <path class="cls-149" d="M326,15c1.65,1.19.99,2.52-2,4l1.35,3.12c-1.38,11.23-3.45,20.91-7.66,31.38-5.56,9.73-9.7,19.87-12.42,30.41l-2.27,2.09c-8.47,8.03-3.92-13.51-2-18-.84-3.91.55-6.99,4-9,.05-3.22,1.91-9.4,5-10,4.57-1.55,4.92-20.97,4.27-20.11l-5.73,11.47c-4.12,4.21-5.25-.03-4.54-4.36,2.49-6.13,4.66-12.77,7-19,2.56-.65.05,3.52.88.1,2.19-9.02,7.25-10.89,14.06-4.24.52.5.37,1.36.06,2.14Z"/>
  <path class="cls-63" d="M57,79c3.67-10.22,6.82-20.95,9.44-32.17,6.36-1.1,5.9,4.5,4.56,9.17l1.17,3.35c-3.55,15.21-8.14,30.09-13.75,44.62l-2.42,2.02c-.57,4.02-.78,8.12-.65,12.29-1.43,6.61-7.84,8.4-6.84.06l-.5,2.65c-.28.87-.62.86-1,0,.69-20.76,4.09-24.08,10-42Z"/>
  <path class="cls-96" d="M83,29c1.77.38,3.11,1.71,4,4l1.64-.04c1.72,3.3,3.84,6.31,6.36,9.04,5.82,8.83,14.5,12.52,21,22,2.07,4.37,4.44,9.22,7.1,14.57-1.16,5.44-6.57,6.7-9.1,1.43-3.27-6.38-8.7-14.17-14-19l-2.31-2.49c-7.98-4.97-13.25-13.32-12.76-22.74-2.14-1.63-4.12-3.22-5.93-4.77-1.36,2.4-2.54,1.29-3-1,1.19-2.84,5.46-4.85,7-1Z"/>
  <path class="cls-153" d="M403,248c-.28.87-.62.86-1,0l-2.73-4.69c-1.38-19.6-3.66-38.88-12.97-56.04-2.44-9.77-6.09-19.09-10.95-27.95-3.16-5.94-2.95-8.71.64-8.32,10.92,12.24,26.51,52.13,27.99,68.51.86,9.46-.47,19.24-.99,28.49Z"/>
  <path class="cls-34" d="M368,155c-3.45-6.32,1.32-14.46,7-5,.4.27.68.65,1,1-1.85.83-.52,3.25-.05,4.54,2.33,6.33,6.45,12,8.55,18.46,1.48,4.57,1.68,10.51,3.71,15.29,1.59,3.77,4.34,6.15,5.75,10.25,5.22,15.2,5.42,32.62,8.04,48.46-3.03,2.37-4.27-1.42-5-4-.27-26.16-5.03-43-16.29-66.21-1.73-3.57-12.56-21.49-12.71-22.79Z"/>
  <path class="cls-140" d="M83,351c-.75-4.01-4.73-22.14,2.5-22.03,4.82,1.02,2.1,3.81,2.56,6.38.57,3.14,4.1,21.67,6.44,21.64l3.98-2.98c3.2,8.68,4.23.46,8.23-.79,1.52-.48,15.35-2.25,16.54-2.06,1.51.25,3.1,1.4,3.74,2.85-3.39,4.31-9.05,6.31-17,6-.33.03-.67-.03-1,0-2.53,2.9-10.88,4.6-14,3-5.23,1.43-6.74-.69-8.48-5.46l-2.52-2.54c-1.04-.28-2.79.19-4,0,.14-1.21,1.14-2.54,3-4Z"/>
  <path class="cls-151" d="M12,276c-.98,7.84,8.5-4.28,9.99-5.51,3.81-3.15,7.86-7.32,12.87-4.34,3.13,5.89-7.86,17.42-7.86,20.36v16.5c3,.52,4.64-2.69,7-5,3.11,2.59-2.35,11.14-6,10-8.29,2.63-9.21-7.44-8.47-13.87l-.53-3.13c.22-1.22.94-1.75,1-2,.67-3.07-.01-4.88-3-5-3.37,1.06-11-4.41-6-7,.19-.14.98-.93,1-1Z"/>
  <path class="cls-20" d="M179,58c4.19,5.26-1.34,11.12-7,7-4.6-4.02-10.36-9.58-16.99-7.51,2.8,2.98,6.49,4.07,8.99,7.51,2.51,11.17-7.79,14.33-11.27,3.28-1.38-.62-2.63-1.38-3.73-2.28-8.95-4.26-3.71-15.71,4.94-17.55,10.61-2.26,18.22,2.25,25.06,9.55Z"/>
  <path class="cls-70" d="M310,49c-.95-.73-1.14-1.55-.65-2.53-1.16,4.26-2.94,7.44-5.35,9.53-.34,4.38-4.43,12-9,12l-2.6,2.5c-1.33,3.19-9.86,16.28-10.81,8.12l6.41-11.62c5.75-10.82,11.24-19.27,16-31,1.66.32.04,5.16,2.49,3.99,2.57-1.23,4.49-10.83,7.1-13.91,1.45-1.71,1.74-2.91,3.4-.54-2.32,8.05.47,17.73-6.99,23.46Z"/>
  <path class="cls-166" d="M402,248h1c-.13,2.31,0,4.68,0,7,1.7,4.72,4.37,9.39,8,14,3.29,4.01,3.74,8.01.57,12.24-1.92,2.57-8.58,5.44-11.76,5.99-.19.03-.49-.51-.81-1.23l-1.53-1.71c1.14-2.5-.03-6.94-2.21-3.03.1,3.87-.77,12.69-5.26,7.73,3.63-3.8.15-11.09,6.03-13.53,2.27-.94,10.08,4.58,9.95,1.03-.04-.99-8.98-7.46-9.79-11.23.66-7.1.89-14.13.81-21.27l5,4Z"/>
  <path class="cls-11" d="M48,154c-4.84,8.75-5.56,21.32-6.04,31.46-.87,18.29,3.04,38.41-3.96,55.54,3.87-15.06,5.15-36.9.13-51.45l4.86-28.54-3.73,5.77c-.88,10.1-3.73,20.34-4.31,30.68-.57,10.11.51,20.42.03,30.54-1.74.23-.94-2.27-.99-3.48-.43-10.4-.02-21.09,0-31.51,0-1.33,0-2.67,0-4l1-14c.47-7.93,1.46-18.75,8-24,5.3-4.51,6.86-4.08,5,3Z"/>
  <path class="cls-94" d="M109,360c-1.46,4.28-2.51,6.94-7.48,7.11-3.08.11-7.09-2.56-8.31,1.6-2.21,7.53,1.66,19.26.82,26.82-.53,4.74-7.82,14.21,2.98,14.48l.22,1.37c-5.72,2.33-8.31,5.29.42,3.6l1.36,2.03c-6.38,2.95-8.52,3.44-14-2-2.14-2.22-1.08-4.74,2-5l.88-4.11c-2.59-2.2-3.21-4.5-1.88-6.89-1.08-2.59-.68-6.16,0-9-.42-5.46-1.48-10.22-1-16,1.79-.12,2.37.58,2.56,2.15.29-2.85,2.86-13.97,6.11-13.76.45.03.89.29,1.33.61,2.05-1.64,10.88-2.71,14-3Z"/>
  <path class="cls-31" d="M366,131c-2.83,5.02-9.97-1.28-6-5-.87-.33-.87-.66,0-1,.35-2.52,1.8-2.52,4.35,0,5.03-.27-8.79-54.62-11.35-58.01-5.96-6.6-9.69-17.08-10-26l-2.94-4.71c-3.69-9.79-12.94-32.32-25.92-25.42l-1.14-.86c1.06-2.87,2.15-10,6.31-8.89,1.3.34,2.37,2.51,3.77,3.32,2.05,1.19,3.65,1.26,5.95,3.05,7.35,5.71,13.55,29.97,17.49,39.51,10.87,26.26,22.41,45.55,22.39,75.64,0,3.07-1.64,5.74-2.91,8.38Z"/>
  <path class="cls-52" d="M336,348c1.98-.35,3.36.87,4.14,3.67,1.78-3.27,5.07-4.49,9.86-3.67.57-3.08,3.67-2.7,5,0,.52.3.51.64,0,1-1.4.97-3.14,3.08-4.03,3.48-1.52.68-8.99.96-8.99,2.04,8.74,14.36,10.76,31.29,16.57,46.44,2.75,7.18,6.91,13.26,9.17,20.83.59,1.97,3.14,12.41,3.01,13.59-.49,4.61-5.18,4.39-6.73,5.63-.73-.45-.7-1.58-1-2l.59-2.13c3.72-1.08,4.3-4.27,1.75-9.56-2.97-6.35-5.09-12.79-6.34-19.32-.79-.39-1.46-.82-1.71-1.43-4.61-11.27-9.21-24.79-10.29-36.57-.58-.9-1.32-1.36-2.52-1.16-1.58-6.97-4.75-6.89-2.83.37l-1.65,1.79c-2.82.2-6.33-5.82-4-8-2.4-2.29-2.65-5.21-2.75-8.36-.09-2.91-.25-8.72,2.75-6.64Z"/>
  <path class="cls-121" d="M412,269c1.11,1.85,5.19,8.64,5.55,9.98,1.88,7.15-6.44,15.45-9.41,10.85-1.04-1.62,1.91-6.43-5.89-3.08-.82.35-7.43,7.6-7.73,8.26-2.37,5.19,3.39,42.84-13.75,29-1.29-1.04-2.3-4.48-4.25-4.02-1.3,2.2-3,4.03-4.51,6v-1c-2.19-2.06,1.16-7.44,4-6,5.3-4.59,7.05-1.71,8,4,2.69.27,4.26-.86,4.71-3.37l2.29-.63c.03-2.41.36-4.75,1-7-2.2-.25-1.47-1.6,0-3-2.75-.59-2.46-11.44-1.76-13.77.8-2.65,5.84-10.34,8.76-9.23,8.55-1.1,15.83-7.99,12-17,.3-.59.63-.58,1,0Z"/>
  <path class="cls-157" d="M79,31c.71.31,1.64.77,1.66,1.43.09,3.56-5.29,16.39-7.66,18.57,2.29,1.9,1.08,5.35-2,5-.18-3.46-.04-7.17-3.99-8l-9.01,33.5-1-2.49c4.48-13.58,7.23-36.76,16-48,1.6.06.36,1.5.36,1.18,0-.88,1.61-2.77,2.64-2.18,1.28-.47,2.4.86,3,1Z"/>
  <path class="cls-137" d="M360,126c.89,3.82,1.54,5.52,6,5l5,13c-1.47.61-3.47.29-6-.97-.56,2.21-1.56,3.53-3,3.97-4-.04-8.83-7.02-11.07-10.63-3.31-3.81-4.29-7.27-2.93-10.37,4.18.9,6.54.77,10.84-1.1l1.16,1.1Z"/>
  <path class="cls-40" d="M222,69c4.11-.3,8.52-2.35,10.67,1.98l1.33.02c-10.83,1.79-16.99,10.61-31,7-7.04-5.48-1.01-11.8,6-8,.66-.06,1.34.02,2,0,2.19.76,4.53.76,7,0,1.19-.4,2.52-.73,4-1Z"/>
  <path class="cls-18" d="M137,482c2.43,1.18,5.19,3.01,7,5-2.23,3.68-6.39,1.55-9.15-.83l-2.85.83c-3.93,5.41-7.83,9.99-15.54,9.05-4.66-.57-6.65-5.05-7.11-5.12-2.24-.37-5.32,2.74-7.94,3.06-3.74.45-8.36-1.26-10.84-4.04-2.11-2.36-1.87-4.81-2.57-5.94-.82-1.54-.58-1.95,1-1,2.3-1.43,2.92-.51,2,2,4.17,4.16,8.5,6.16,13,6,3.15-9.74,10.66-8.91,14.95-.31,3.6,2.73,12.84-5.7,8.19-5.61l-1.14-2.09c-.07-7.45,7.4-3.35,11-1Z"/>
  <path class="cls-115" d="M83,405c4.37-4.46,6.18-.02,4,5-.69,1.58-1.36,3.71-2,5s-2.12,3.51-3,5c-1.31,7.14-11.25,17.59-11,4,.35-.71.61-1.29,1-2,2.79-6.88,6.46-12.54,11-17Z"/>
  <path class="cls-81" d="M197,52c1.52-.87,3.47-.93,5,0,1.2.21,1.22.45,2,1,1.43,1.71,1.77,4.04,1,7,1.73.64,1.8,1.48,0,2,.75,7.88-10.85,10.04-9.53.78l-1.47.22c-3.63,6.17-7.38,1.55-5-4,1.78-3.53,3.24-4.36,6-7,.6-.1,1.34.05,2,0Z"/>
  <path class="cls-111" d="M43,330c6.85-3.25,6.28,2.94,9.43,6.07,2.12,2.1,5.93,1.99,6.18,5.44.21,2.86-4.32,3.89-6.61,4.49-1.49,2.37-4.79-.9-6-3-2.72-4.12-3.8-5.29-4.07-10.53-.06-1.26,1.08-2.33,1.07-2.47Z"/>
  <path class="cls-161" d="M367,331c.31-.45.64-.44,1,0-.64.84-1.15,1.91-2,3-2.25,5.5-5.78,10.99-11,14-1.61.15-3.45-.22-5,0-7.94,2.13-11.78-.08-11.54-6.64-2.77-.13-4.59-.92-5.46-2.36,9.68-7.52,7.99,5.15,9.93,6.58,4.37,3.23,9.82-5.65,12.03-8.12,4.18-4.69,2.9-3.33,6.04-8.46,2.06.64,4.06,1.31,6,2Z"/>
  <path class="cls-85" d="M48,124c-.12,8.39,1.52,11.94,4.93,10.64,1.1-2.05,11.18-9.76,12.4-9.39.86.26,1.37.93,1.67,1.74-10.65,10.96-11.94,14.24-19,27l-1.01-5c-1.74.38-3.45,4.34-3.99,2,2.44-3.06,5.78-6.35,5.94-10.59.13-3.54-2.74-6.29-2.9-8.97-.13-2.26.85-7.24.96-10.45h1c1.92.91,1.92,2.08,0,3Z"/>
  <path class="cls-133" d="M28,308c5.51-2.35,8.64,5.94,8.83,10.85,1.03-.48,2.09-1.43,3.17-2.85,1.56,3.25,1.66,8.2,2,12-7.01,1.76-7.45-.08-9-6l-1-5c-.12-1.05.39-3.33-.1-3.88-.69-.77-7.94-.92-10.92-4.59-2.23-2.75-1.41-3.89-1.98-6.53-.79-2.48-.79-4.81,0-7,.02-1.26-.2-2.89,0-4,2.47,3.34-.13,8.32,1.52,11.98.95,2.11,5.38,3.6,7.48,5.02Z"/>
  <path class="cls-91" d="M116,64c2.99,4.35,6.44,8.54,7.01,14,3.93.32,5.39-3.61,9.47-4.06,4.58-.51,6.32,1.77,9.52,2.06-3.49,3.39-3.26,7.1-10,6l-.63-1.18c6.09-6.55-7.34-.24-5.37,4.18-2.82,1.55-3.48,3.95-8.22,1.76-4.1-1.9-2.68-4.63-3.78-6.76,11.42,5.06,6.55-6.42,2.8-12.29-.56-.88-2.98-3.07-.8-3.71Z"/>
  <path class="cls-39" d="M6,270c2.16.99.38,7.36,1.01,8,1.42.14,2.85-.12,3.99-1-.84,4.48,4.3,3.55,6,7-2.21,9.26-14.14,24.21-11.01,3.53l-.99-15.53c.13-1,.86-1.54,1-2Z"/>
  <path class="cls-42" d="M194,63c.58-1.53.32-3.4,2.99-3-.87,9.54,3.64,8.44,8.01,2l1.12-.7c.61,3.02,1.24,5.59,1.88,7.7.45.13.83.56,1,1-5.57.47-10.7,1.91-6,8-5.78-1.49-3.06-7-6.69-7.9-3.19-.79-8.65,10.02-9.31-2.1,2.67.21,4.11-.89,4.33-3.28l2.67-1.72Z"/>
  <path class="cls-5" d="M89,436l.43,3.25c-7.17,12.72-7.55,27.8-.08,40.48l-.35,3.27-1,1c-1.41-2.28-4.1-4.74-5.19-7.31-2.81-6.61-5.35-24.07-2.81-30.69.45-1.18,2.4-1.88,2.6-2.26,2.88-5.31,3.14-4.67,6.4-8.74.64.3.63.63,0,1Z"/>
  <path class="cls-31" d="M73,31c1.64-2.1,5.07-4.33,5.47-5.03,1.06-1.81.26-5.29,2-7,1.08-1.06,4.95-1.47,5.5-.94.4.39,1.9,9.14,2.55,10.95,1.63,4.54,3.83,9,6.48,13.02l-4.96-4.54c-1.24-1.26-1.94-3.19-3.04-4.46-1.14-2.01-2.02-3.23-4-4-2.85-.06-4.52-.54-7,1-2.21,1.37-2.84,5.53-3,1Z"/>
  <path class="cls-79" d="M268,73c1,.99,1.66,3.76,2.71,4.02,2.92.72,8-.53,11.29-.02.54,1.79.56,3.85.08,6.17,1.64-2.23,3.62-3.62,5.92-4.17,3.77,1.78-1.13,12.89-5,11-2.25,1.13-4.4-.16-6.43-3.86l-2.57-1.14c-4.44-1.97-3.21-1.25-8-2-.32-1.69.34-3.36,2-5-3.48-4.29-3.48-5.95,0-5Z"/>
  <path class="cls-109" d="M95,363c-5.53,4.41-5.88,18.41-7.01,24.99l-2.99-13.99c.59-7.13,4.47-11.69-1-19,4.01,1.09,4.13,4.52,6.46,6.09,1.38.93,3.86-.8,4.54,1.91Z"/>
  <path class="cls-73" d="M268,73c-3.05.98,2.57,4.37,2,4.99h-2c-3.82.26-7.8-.86-11.96-3.34-5.85-.68-11.2-1.9-16.04-3.65-.66.01-1.34-.05-2,0,7.13-4.81,24.07-3.88,30,2Z"/>
  <path class="cls-169" d="M157,450c1.85,8.88.38,19.45-2.48,28.02-1.9,5.7-10.57,13.74-16.81,11.8-1.73-.54-2.9-3.57-5.71-2.81,4.52-6.22,4.36,3.45,12,0l.28-2.39c10.16-7.33,10.4-22.55,8.99-33.98l1.73-1.63c.57.29,1.53.93,2,1Z"/>
  <path class="cls-50" d="M313,10c4.73-2.94,7.71-4.33,12.44.06,9.91,9.2,12.49,18.76,17.56,30.94-3.73.97-5.73-2.03-6-9l-2.33-.36c-1.44-6.24-4.41-11.28-8.9-15.14l.23-1.5c-8.41-6.34-10.36-7.08-14,4.49l-1-2.49c.83-2.22,1.18-4.78,2-7Z"/>
  <path class="cls-123" d="M5,272l2.08,15.5c.04,3.11-3.75,12.79,3.49,7.57,1.77-1.28,4.25-8.39,6.43-11.07,1.38-1.71,5.19-4.29,6.99-6-1.07,3.72-3.02,7.24-3.99,11,.26-1.11-.17-4.32-2-3.51-3.27,1.44-3.54,10.59-8.68,13.42-7.28,4-4.37-9.14-4.32-12.91-.86-4.27-1.03-8.74,0-13,.03-.33-.04-.67,0-1Z"/>
  <path class="cls-154" d="M371,144c2.12,1.97,2.97,3.31,4,6-2.2.95-3.29-4.78-4.99-3-.28.3-2.1,7.24-2.01,8-.52-.4-1.65-.62-2-1-2.99.9-3.46-.53-2-3-3.01.63-4.36-2.03-2-4-.05-7.4,4.24-7.42,9-3Z"/>
  <path class="cls-113" d="M52,346c4.36,2.14,5.88,2.18,9.75,3.75,2.73,1.11,6.28,6.09,9.83,6.27l11.42-5.02c.08.42,1.65,1.46,1.01,2.99-1.8-.45-2.67.4-4.01,1.01-5.77,2.62-8.11,4.4-14.35.85-1.82-1.03-2.96-3.23-4.91-4.09-4.63-2.05-8.9-.86-13.33-5.71-1.12-1.23-.98-2.4-1.41-3.05,1.69,1.86,4.16,2.1,6,3Z"/>
  <path class="cls-41" d="M151,73c.77-2.35.67-3.33-1-5-.38-.3-.62-1.49-1-2,.65.31,1.91-.08,3.52.94,4.77,3.03,8.82,16.04,11.48-1.94,7.12,9.76-10,14.31-12.57,11.03-.69-.89-.25-2.17-.43-3.03Z"/>
  <path class="cls-47" d="M179,58c1.47,1.57,2.91,1.85,3,2,2.21,3.61.52,9.48-3.95,10.61-1.92.49-4.78-4.5-6.05-5.61,4.85-.57,8.07-.75,6.17-6.33l.83-.67Z"/>
  <path class="cls-64" d="M334,473c-2.13,4.34-4.3,11.31-10,12.57-4.5,1-5.76-3.13-10-3.57,6.63-2.62,8.62,1.25,11.01.63,2.08-.54,5.88-5.62,6.99-7.63-1.42-1.42-1-2.28,1-2h1Z"/>
  <path class="cls-56" d="M70,432c-.4-3.85-.99-3.95,1-8,3.5,11.11,8.23.7,11-4-.86,5.52-5.24,15.44-12,12Z"/>
  <path class="cls-118" d="M86,399c.08.7,1.65,2.42,1.01,4,1.2.72,1.16-4.3,2.98-1.99,1.08,1.37-2.27,7.33-2.99,9v-5c-1.22.94-3.81-.06-4,0-.23-.64-.23-1.3,0-2,.74-.87,1.29-2.06,2-3,.05-.61.39-.94,1-1Z"/>
  <path class="cls-49" d="M355,349v-1c4.46-4.16,7.33-9.26,11-14-.68,7.02-5.64,11.28-11,15Z"/>
  <path class="cls-101" d="M83,405c-2.8.96-7.49,12.25-9.15,15.39-.5.94-1.71,1.36-1.85,1.61,2.15-7.32,6.17-13.31,11-19l.97.5-.97,1.5Z"/>
  <path class="cls-62" d="M412,269h-1c-1.59-3.74-8.96-9.04-8.92-12.49,0-.81.92-1.37.92-1.51,2.2,5.23,5.87,8.79,9,14Z"/>
  <path class="cls-57" d="M208,69c-3.64-1.09-1.43-1.02-2.07-5.42-.12-.82-.93-1.44-.93-1.58-.03-.63-.08-1.39,0-2l1-3c1.72,4.34,2.73,6.88,2,12Z"/>
  <path class="cls-126" d="M288,67c-.04.07.87.46.28,1.62-1.58,3.14-4.19,6.98-6.28,9.88,6.59,3.94,6.67-9.61,12.99-10.51,1.18,3.78-2.98,10.87-7,11-1.3,1.7-4.32,6.9-6.49,5.99-3.54-1.48-.23-6.03.49-7.99,1.32-3.6,2.46-7.53,6-10Z"/>
  <path d="M34,189c.01-4.41-.85-10.23,1-14-.27,4.49,1.04,10.16-1,14Z"/>
  <path d="M5,286c-1.67-3.01-1.7-9.79,0-13-.38,4.05.05,8.82,0,13Z"/>
  <path class="cls-139" d="M86,399c-.28.37-.73.64-1,1,.43-3.14-1.13-7.63,1-10,.22,2.9-.34,6.19,0,9Z"/>
  <path class="cls-23" d="M372,326c-1.23,1.6-2.81,3.43-4,5h-1c-2.29-2.32,2.3-7.28,5-6v1Z"/>
  <path class="cls-42" d="M206,57c.53,1.2-.95,2.62-1,3,.28-2.53.15-4.87-1.98-6.51l.98-.49c2.69,1.89,1.3,2.23,2,4Z"/>
  <path d="M19,302c-.4-1.83-2.63-4.94,0-7-.04,2.33.03,4.67,0,7Z"/>
  <path class="cls-42" d="M216,70c.76-.44,1.52-.79,2,0-1.72.32-4.97,2.68-7,0,1.66-.05,3.34,0,5,0Z"/>
  <path class="cls-162" d="M150,68c.91.73,4.37.16,1,5-.07-.32.05-.68,0-1-.23-1.35-.73-2.66-1-4Z"/>
  <path d="M222,69c-.73,1.61-2.79.77-4,1h-2c1.12-1.76,4.11-.86,6-1Z"/>
  <path d="M33,322c-.56-2.15-.72-2.62-1-5l1,5Z"/>
  <path d="M202,52c-1.25-.22-3.62-.1-5,0,.66-1.58,4.34-1.58,5,0Z"/>
  <path class="cls-119" d="M217,263c.64,1.31.57,2.24-.21,2.82-7.45,1.31-10.07,3.59-7.87,6.82-.74.6,3.69,4.1,4.4,4.35,13.31-3.02,10.4,18.9-1.32,19.01-8.2,12.26-37.99-3.47-20-12-1.06-1.06-.39-2.06,2-3l-.77-2.45c12.48-15.04-14.19-15.28-21.62-8.82l-2.61.27c-.26,6.05,2.42,11.67,8.03,16.84,3.89,7.32-1.99,16.6-7.03,7.16-2.53,1.03-3.05.45-2-2-10.58,1.68-20.96-5.16-8.15-12.04-2.2-2.56-1.52-4.8.16-7.4-1.29-1.81-1.29-4-.01-6.57,7.85-15.81,16.44-32.02,21.51-48.99,1.21-4.05,5-26.31,8-27.01,2.18-.51,4.99,8.16,5.77,10.21,7.69,20.04,14.64,42.3,21.71,62.79Z"/>
  <path class="cls-131" d="M305,59c-1.3,2.99-2.69,6.01-4,9-.43,2.95-1.43,5.28-3,7l-2.17,14.13c-1.85,13.26,13.72,13.96,23.2,12.89,5.52,1.02,7.25,3.37,7.96,8.97l1.48-.11c4.46,6.93,8.8,8.3,16.79,8.82.92.51,1.61,1.21,1.73,2.29,1.36,1.06,3.06,3.15,1,4,3.01,9.17,8.65,14.19,14,21,.29.37.83,2.39,2,4,1.33,2.66-.42,4.6-3.24,4.63-6.57-2.82-13.15-4.37-19.76-4.63-3.83.45-5.46,1.42-9.41-1.14-.96-.62-1.3-1.66-1.59-1.86l-5.03-1.86c-10.75-.25-16.26-3.08-21.84-12-14.07-.73-21.15-4.88-23.88-19.4-1.2-3.35-4.13-5.49-8.78-6.41l-2.46-3.32c-1.59-3.16-3.7-5.12-2.83-9.27.14-.67,5.49-10.22,6-10.55s2.33-.38,2.83-.18l2.63,1.14c1.69,3.35,3.81,4.64,6.37,3.86,2.75-2.66,4.56-7.18,5-11,2.65-3.47,4.58-7.44,7-11,2.61-3.83,6.71-7.79,9-12,1.41-.86,1.74.14,1,3Z"/>
  <path class="cls-155" d="M218,265c7.46-3.01,15.9-5.14,23.79-6.71,18.9-3.75,61.4-8.85,79.02-3.61,1.21.36,10.44,4.09,7.2,5.83-4.18,2.25-24.26-.6-30.56-.56-13.15.07-30.71,1.36-43.84,3.16-2.27.31-12.93,2.06-13.61,3.4-.97,1.92,3.4,2.4,4.48,2.49,20.9,1.77,38.06-3.6,57.81,8.19,8.49,5.07,19.54,17.14,22.23,26.77,2.17,7.78-.15,9.56-5.5,3.5-11.15-12.62-14.69-23.57-33.38-28.62-9.57-2.59-34.51-4.94-44.2-3.9-1.48.16-2.54.17-3.44,1.57l28.71,18.26c9.11,6,17.24,13.62,20.73,24.27,1.64,5.01,2.42,19.69,3.62,21.38,1.94,2.74,6,1.28,8.93,1.57-3.49,4.05-15.81,4.05-20,1,6.47-1.09,4.44-5.73,3.32-10.83-4.5-20.49-31.77-40.7-50.33-48.66-4.96-2.13-10.08-.55-10.99-6.51-3.05-.67-6.45-9.78-4-12Z"/>
  <path class="cls-48" d="M141,208c7.43,1.89,21.68,16.89,15.14,24.25-2.69,3.03-8.25-.03-10.14-3.25l-1.24.75c-8.42-7.97-11.38-7.72-8.87.75,0,3.78-1.3,5.95-3.89,6.5,1.96,2.01,1.83,2.18-1,2,2.02,1.77-.34,4.66-2.35,5.35-4.52,1.55-6.32-2.84-7.65-6.35l-2.51-1.08c-2.4-5.55-3.89-11.3-4.48-17.25-10.21.03-18.41,3.06-27.33,7.5l-3.68-2.18c-2.96-3.07-4.2-4.51-.58-9.08,2.92-3.68,6.8-2.22,10.32-3.67,3.04-1.25,5.75-6.46,10.25-7.25,11.45-5.06,28.8-5.56,38,3Z"/>
  <path class="cls-6" d="M76,51l1.86,1.79c-.25,7.06,2.74,13.29,8.97,18.67,3.25,5.82,5.7,15.76,3.17,21.54,2.79-.2,2.92,1.18,1,3-.71.62-3.92,3.73-4,4l-3.37,1.63c-3.14,6.63-7.77,11.76-13.16,16.74l-2.47-.37c-4.8,10.12-16.95,20.34-12,1-.82-4.22-.9-8.75,0-13,1.92-11.62,7.15-19.68,10.3-30.2,1.91-6.39,2.75-13.13,4.7-19.8.4-1.37,1.75-3.31,2-5,1.21-2.57,2.07-2.84,3,0Z"/>
  <path class="cls-135" d="M154,276c3.59,1.8,1.05,9.89-2,11-1.11,3.9-6.52,5-9.91,7.59-9.45,7.19-13.82,18.42-20.66,27.34-2.82,3.69-6.17,4.45-5.24-1.19,1.35-8.11,14.53-23.66,20.79-29.26,2.32-2.08,6.71-3.22,7.01-6.48-2.02-1.74-16.25,6.94-18.91,8.58-7.16,4.41-19.47,16.36-25.1,18.89-1.62.73-3.25.61-4.97.52-.08-.79-.02-1.54.16-2.32,1.03-4.33,17.31-16.41,21.7-19.31,5.16-3.4,13.33-6.39,17.47-9.53,1.13-.86,2.05-1.05,1.66-2.83-15.74-1.4-28.68-1.09-43.77,3.72-2.14.68-17.48,8.55-16.22,2.79,1.5-6.87,28.91-13.96,35.51-14.51,10.88-.9,20.62,2.29,29.98,2.07,5.24-.12,11.85-5.93,12.5,2.91Z"/>
  <path class="cls-30" d="M267,196c12.14-1.16,28.24-2.04,38,6,1.97.94,8.58,3.38,8.94,4.63.64,2.24-2.65,4.39-3.94,6.37-3.07,1.29-5.27,3.36-6.61,6.21l-2.39-.21c.63,3.41-4.73,9.5-8,8,.1,4.31-6.61,9.21-11,9-3.11,1.82-7.39,2.73-11,3-.25.24-.5.44-.76.46-2.71.26-12.89,1.18-14.41-.39-2.34-2.4-1.14-4.41.84-6.51-.29-2.09-.18-4.28.33-6.56l2.36.33c3.02,6.3,6.01,9.68,10.18,2l2.46-.32c4.42,3.43,20.3-13.01,20.21-14.56-.04-.72-12.28-1.9-14.29-1.54-.17,5.26-.4,10.86-3.53,15.33l-2.4-.23-1.97-.98c-.21-4.56.3-16.57,3.98-18.74,6.78-1.07,13.55-2.02,20.31-2.86-16.29-7.5-54.2-3.06-62.51,13.94-.9,1.84-6.39,15.51-6.3,16.39,1.77.58,2.87,1.08,2.49,3.26.53,2.61-5.51,2.01-7.11,1.15-1.46-.79-.43-4.83.11-6.15,6.16-8.88,5.99-17.72,14.52-24.98,7.03-5.98,22.29-11.37,31.48-12.02Z"/>
  <path class="cls-89" d="M83,225c6.03,1.69,9-2.98,12.97-4.53,2.68-1.04,18.86-3.72,20.03-2.48-.2,6.95,2.71,13.57,5,20.01-.55,9.24,19.74,7.07,10.38,3.31l-.38-2.31c.22-.34.8-1.53,1-2,1.79-1.35,2.28-1.31,3,1,4.41-1.04,9.09-1.4,14.06-1.08l.94-1.92c-1.08.1-1.47.06-1-1-.56-1.13-.36-1.97.71-1.87,6.93.69,4.67,7.51.69,11.1,2.25.14,3.45,1.07,3.61,2.77-5.56,2.26-14.99.57-21.49,1.01-3.7.25-6.91,2.08-11.01,2.07-16.35,0-28.03-13.24-38.5-24.08Z"/>
  <path class="cls-45" d="M142.14,185.13c4.97-3.12,16.47,8.37,17.85,6.86.41-5.02-14.09-18.8-8.01-22.55,5.24-3.24,15.78,14.71,17.4,18.67,2.92,7.13,1.01,18.62-8.35,15.34-.96-.34-16.19-10.07-17.08-10.9-1.65-1.53-4.19-5.93-1.82-7.42Z"/>
  <path class="cls-108" d="M261,344c-10.23,3.38-21.56,3.62-32,1-.18.9-.52.86-1,0,4.21-2.84,24.57.84,26.58-1.94-.31-16.04-5.25-31.24-14.75-44.39-1.22-1.69-9.79-8.51-5.28-9.66,3.47-.88,10.28,5.96,12.47,8.47,7.42,8.48,13.7,23.83,14.01,35.08.11,4-2.36,7.71-.03,11.45Z"/>
  <path class="cls-147" d="M300,342c3.66-.61,3.25.88,4,4-3.6,2.13-9.76,2.91-14,3-18.58,3.68-39.44,3.5-58.61,2.23-.98-2.06-1.78-4.14-2.39-6.23,10.65-.4,21.43-.6,32-1,6.37-.24,12.66-.73,19-1,7.27-.31,12.76.21,20-1Z"/>
  <path class="cls-97" d="M185,288l1.22.68c-.97,4.6,5.98,10.38,10,11.24,8.02-.65,10.61.71,7.78,4.08-5.08,2.06-5.85,4.12-13,3-1.81,1.95-4.82,1.07-9.04-2.64-1.98,2.27-7.04,4.54-8.06,1.22l-6.9-.58c-.54-.39-6.35-5.62-6.56-6.01-.87-1.67.17-3.4.56-4.99-1.19-3.76,4.34-2.59,7-2,1.22.66,1.57,1.71,2,2,4.4,8.42,10.46,1.63,7.54-5.78l1.46-1.22c1.47-1.22,4.26-2.15,6-1,.89-.08.89.58,0,2Z"/>
  <path class="cls-19" d="M240.01,179.99c.67.64,12.19-9.19,15.74-9.82,2.93-.52,5.48.64,3.79,3.84-.72,1.36-12.4,7.88-15,10-5.94,4.83-10.82,11.39-16.02,16.96-3.97-3.46,2.25-7.78,3.56-11.42,2.92-8.17,1.73-12,7.97-20.03,1.85-2.38,8.19-10.27,10.53-5.5,1.71,3.49-12.18,14.4-10.55,15.97Z"/>
  <path class="cls-23" d="M399,286c-.62,1.43-6.39,7.82-6.84,9.7-.16.65.03,10.35-.16,13.3-3.32,4-5.35,8.24-6.1,12.73l-1.9,1.27c-3.04-3.36-1.16-5.02-8-4l-.95-2.04c4.83-4.73,2.79-11.71-.59-3.3l-2.46.33c-1.34-4.3,3.86-12.68,8.03-8.54,2.22,2.2,6.82,15.58,6.01,0-.4-7.77-4.13-11.05,3.96-16.46.4-.27,1.91.08,2.53-.93,1.54-2.49-1.52-10.71,4.95-10.14,3.34.29,2.43,5.97,1.52,8.07Z"/>
  <path class="cls-135" d="M154,291c1.38-1.39,1.93-.8,1,1-3.56,5.93-7.84,10.18-10.76,16.74-4.69,10.52-4.98,16.86-6.24,27.76-.69,5.98-5.63,11.19-6.97,3.97-2.06-11.02,6.09-31.27,12.56-40.38,2.44-3.45,6.03-8.56,10.41-9.09Z"/>
  <path class="cls-146" d="M100,61c-2.77-2.52-6.83-3.81-9.53-6.97-3-3.5-3.42-8.68-7.46-11.03-.11,3.82.26,8.38,1.49,12,1.89,5.54,6.61,8.42,9.05,12.95,2.74,5.08,4.8,18.01,3.24,23.34-.92,3.14-4.62,3.68-5.79,4.71-.58-.92-.72-1.97-1-3l.71-2.05c6.49-1.31,2.29-13.63.09-17.76-5.36-6.73-9.25-13.17-10.27-21.77-.37-3.77-1.88-3.91-4.53-.42h-3l6-20c1.13.27,2.33-.25,3.94.52,7.53,3.6,2.62,9.36,4.84,15.2,2.43,6.39,9.87,8.48,12.22,14.28Z"/>
  <path class="cls-33" d="M228,345c.33-.01.67.01,1,0,4.01.99,2.68,3.51,4.66,6.05,11.26-.49,22.64.5,33.89,0,6.23-.28,16.58-.88,22.46-2.04.87.28.86.62,0,1-18.64,2.45-37.97,3.09-56.46,3.05-11.37-.02-18.44,0-29.54-2.05l-.49-4.01c8.2-.45,16.27-1.67,24.49-1.99Z"/>
  <path class="cls-138" d="M257,226c.31,1.28,1.65,6.17,1.65,6.51,0,2.07-3.73,3.55-1.65,4.99,2.8,1.93,10.48,1.77,14,1.5v1c-10.66,5.48-20.55,6.02-29.64,1.61l-13.36-.61c-5.92-1.1-11.72-1.2-7-8v6c2.95.21,4.46.31,7-1-.47-5.64,5.22-17.63,11-11,.03,4.89,18.84,3.27,15.67-2.46l1.33-.54c2.73-.59,3.01.11,1,2Z"/>
  <path class="cls-71" d="M218,265c1.22,3.69,3.39,8.47,4,12,1.19,6.93,2.5,17.33-6,19-.5,2.96-3.12,2.65-4,0,4.99-2.82,8.9-5.1,8.84-11.52-.09-8.61-5.38-5.01-8.15-5.63-1.83-.41-2.46-3.55-4.67-2.85-.35,1.31-3.02,6.64-4.5,5.98-5.85-2.6,3.19-7.9,3.39-8.64.42-1.55-1.56-3.59-.48-5.36,1.21-1.98,8.59-2.2,10.57-4.99.17.49.71,1.12,1,2Z"/>
  <path class="cls-59" d="M330,148c-4.9-2.71-18.39.7-22.01-1.49-3.2-1.94-2.07-10.5-6.02-12.04-1.3-.51-4.23.58-7,.11-4.42-.76-11.58-4.35-13.39-8.66-1.19-2.81-3.07-12.04-5.04-13.96-1.5-1.46-4.17-.54-6.11-1.88-1.8-1.24-1.7-3.65-2.42-5.08,2.4,2.68,7.97,3.3,10.05,5.45,3.46,3.56,4.04,13.98,8.98,18.02s12.28,2.86,16.91,5.09c2.5,1.2,5.39,6.35,8.13,7.87,5.87,3.26,9.91,1.05,17.92,6.58Z"/>
  <path class="cls-65" d="M146,209c9.82,7.02,13.03,13.61,14.78,25.75.8,5.55-1.63,9.15-6.78,11.25-11.63-1.22-2.58-5.01-1.98-8.54.28-1.67-.5-6.17-3.02-3.46-3.11,1.35-6.08-3.02-3-5,3.29,2.29,8.73,5.36,9.78-.71,1.67-9.7-8.82-14.77-14.78-20.29,1.27-.55,2.93-.22,5,1Z"/>
  <path class="cls-90" d="M192,348c8.26,3.84-.83,9.14-5,5-4.46,2.24-32.39,2.65-34.17,0-1.13-1.68-.83-2.33,1.17-3,13.96-1.56,23.34-4.32,38-2Z"/>
  <path class="cls-16" d="M191,307c1.66,8.34-4.21,12.08-11.72,9.22-5.22-1.99-6.94-4.88-5.28-10.21-2.81-.07-4.65.68-7-1,3.26-.38,7.4.58,10.48-.02,2.33-.45,3.37-3.19,4.88-2.92.53.1,5.4,4.43,8.64,4.93Z"/>
  <path class="cls-27" d="M350,348c-5.08.73-7.42,1.78-9.02,7-3.01-1.2-3.28-4.64-4.98-7-2.12-1.19-4.46-1.86-7-2,.63,2.77-1.26,3.19-3,1-1.23,3.27-8.54,1.64-8-2,6.37-2.44,5.46-4.73,15-6,11.21-1.49,5.92,5.12,8.97,7.52,2.01,1.59,6.04.19,8.03,1.48Z"/>
  <path class="cls-150" d="M87,100c-.36,1.14.32,3.49-.23,5.25-2.3,7.38-10.7,12.54-15.77,17.75-6.28,3.84-6.61-.56-3-5,3.05-3.02,7.4-7.26,10-10.5,2.32-2.89,3.79-11.24,9-7.5Z"/>
  <path class="cls-3" d="M40,313c.04,1,0,2,0,3,.03,4.39.1,4.72-4.96,4.98-1.39-8.42-.22-8.39-7.04-12.98,2.55-3.03,4.95-6.06,6-10,.71-.69.88-1.19,2-2,5-1.88,6.37,1.16,4.09,9.12l-.09,7.88Z"/>
  <path class="cls-60" d="M372,314c2.37-3.82,1.26-7.02,8-6,.59,5.25-1.26,7.46-4,11-2.01,2.59-2.57,3.95-4,6s-3.67,3.75-5,6c-2.53,1.59-6,1.74-6-2,3.1-5.06,7.68-9.66,11-15Z"/>
  <path class="cls-143" d="M168,292c-3.45-1.02-4.94,1.08-7,2-3.93,1.75-3.56.87-6-2-.34-.4-.95-.92-1-1-.72-1.13-.69-3.04-2-4,.78-2.74,2.2-8.35,2-11,2.01-2.46,4.45-6.89,6-10-.99,2.57,1.93,4.86,1.97,6.5.04,1.56-1.63,2.87-1.64,4,0,1.8,3.24,3.14.21,5.53-1.91,1.5-5.98,1.06-4.46,5.36,1.06,2.98,9.37,3.23,11.91,4.6Z"/>
  <path class="cls-44" d="M68,118l-1,4.99h4c-1.32,1.37-2.7,2.67-4,4.01-3.54-.28-13.33,9.82-15.51,9.81-4.32-.03-3.41-10.08-3.49-12.81,2.8-.2,3.79,2.27,2.96,7.41.48-5.44,2.16-9.58,5.04-12.41-.06,3.18.06,5.89-1,8.99l3.31.02c2.39-4.18,6.4-6.75,9.69-10.02Z"/>
  <path class="cls-120" d="M326,347c3.72,2.23,6.72,9.55,1,10-1.43,1.84-4.3,1.25-6,0,.52-1.05,2.48-6.47,1.99-7-4.01-.2-11.07,9.18-13.53,3.98-1.91-4.05,4.01-5.22,5.54-7.98,1.19-.15,1.97-.61,3-1,1.78,1.18,5.98,2.1,8,2Z"/>
  <path class="cls-67" d="M154,350c-.59,2.72,1.35,1.97,3.13,2.32,10.12,1.97,19.65,1.91,29.87.68,2.17.24,2.77,1.4.79,2.33l-24.79.67-14.52,1.48c-1.85-.19-3.03-1.32-3.57-3.39-4.74.54-6.72-.48-5.91-3.09,5.82-1.58,9.52-.39,15-1Z"/>
  <path class="cls-7" d="M271,240c-6.98,5.66-16.2,9.85-25.24,5.74-2.19-1-2.79-3.24-5.28-3.72-3.77-.73-7.8-.15-12.48-1.02,4.76.27,9.76-.39,14.49,0,3.37.28,6.67,2.16,9.98,2.04,5.18-.19,12.55-4.31,18.53-3.05Z"/>
  <path class="cls-163" d="M268,78c1.77,2.61.07,3.46-2,5-3.61-.56-4.92-4.47-8.44-6.06-5.32-2.41-13.68-2.18-19.56-2.94l2-2.99c9.95-.19,19.36,2.04,28,7Z"/>
  <path class="cls-29" d="M146,209c-1.64-.19-3.46-.41-5-1-4.73-1.81-6.64-4.39-12.51-4.98-5.31-.54-19.93,1.01-25.49,1.98,11.13-10.15,32.22-3.72,43,4Z"/>
  <path class="cls-107" d="M192,348c4.92.78,2.88,1.94,4.13,2.87.2.15,2.55-.99,3.87-.87-2.71,3.73,5.06,2.62,6,6-4.99-.13-9.83,1.11-14.51,3.72l-1.49-.72c.77-1.32,2.5-2.82-.48-3-8.11-.5-18.36-.36-26.52,0,6.57-.33,13.65-.73,20.55-1,1.92-.08,4.01,1.03,3.45-2,4.44-.54,10.64-1.05,5-5Z"/>
  <path class="cls-38" d="M192,284c-1.93,2.41-5.35,3.72-5.05,6.45.33,3.09,7.42,8.68,10.53,8.65,5.27-.05,10.11-.62,14.52-3.1.19,2.61-.81,5.28-3,8-2.11-.44-2.27-1.11-5,0-.25-4.82-6.03-2.42-9.26-3.24-2.49-.63-8.2-6.53-9.2-8.84-.74-1.71-.29-2.69-.54-3.92.79-5.34,1.21-6.46,6.93-5.53l.07,1.53Z"/>
  <path class="cls-104" d="M139,351c1.59,2.04,4.96.27,7.02,1.48,1.61.94,1.43,4.43,2.59,4.6,1.07.16,3.3-1,4.89-1.08,3.16-.15,6.35.16,9.5,0-2.49.11-7.52,1.87-10.5,1.99-6.1.23-11.08-1.61-16.98.03l-.51-5.01c.82-.2,2.25-1.53,4-2Z"/>
  <path class="cls-87" d="M296,232c-4.47,3.62-7.12,6.72-14,4,1.77-1.03,9.18-7.3,11-9,2.73-.7,3.22,2.92,3,5Z"/>
  <path class="cls-141" d="M303,225c-2.39,2.92-4.06,4.62-7,7-2.71-1.39-2.16-2.64-3-5,2.38-2.23,5.71-5.61,8-8,3.68-.38,3.09,3.52,2,6Z"/>
  <path class="cls-46" d="M132,82c-1.29.91-4.45,2.15-6,3l-4-3.99c4.82-.17,8.8-8.36,13.99-3.5.31,1.44-2.88,3.7-3.99,4.49Z"/>
  <path class="cls-74" d="M364,151c.64.88,1.59,2.54,2,3-1.72,6.99-8.69,1.14-11.75.25-4.33-1.26-8.92-1.95-13.25-3.25,1.77-.21,2.9-1.51,6.44-.94,4.85.78,12.49,8.27,16.56.94Z"/>
  <path class="cls-95" d="M310,213c-3.22,4.94-3.08,7.21-7,12l-2-6c2.6-2.72,2.55-7.47,9-6Z"/>
  <path class="cls-68" d="M216,296c3.01,2.61-2.83,8.31-4.74,8.9-1.63.51-2.07-.86-2.26-.9-2.31-2.02,1.68-7.47,3-8,.79-.32,2.86.22,4,0Z"/>
  <path class="cls-148" d="M305,202c-13.15-6.29-23.33-7.04-38-6,1.04-1.66,3.8-1,5.49-1.02,8.11-.08,22.66-.55,29.8,3.23,1.7.9,2.65,1.75,2.71,3.79Z"/>
  <path class="cls-160" d="M127,354c.3-.09.69.09,1,0-1.56,8.91-11.38,5.4-18,6,3.71-1.29,7.53-1.92,11.28-3.22,2.03-.7,3.35-2.04,5.72-2.78Z"/>
  <path class="cls-99" d="M194,63c-1.43,3.78-1.76,9.25-7,5-.23-4.27.18-5.39,2-9-.53,4.01,1.1,6.46,5,4Z"/>
  <path class="cls-158" d="M40,313c-.11-2.75-1.2-6.66-.66-10.35.6-4.08,4.27-4.41-3.34-6.65.52-.37.47-1.84,2.51-2.04,7.28-.72.51,14.93,1.49,19.04Z"/>
  <path class="cls-130" d="M304,346c.99-.06,2.01.07,3,0-5.21,3.26-11.19,3.24-17,4v-1c5.55-1.1,6.6-2.57,14-3Z"/>
  <path class="cls-105" d="M257,396c5.1,2.99,17.16,12.59,5.09,12.36l-12.09-6.36c-2.9-1.91-6.05-3.53-8.91-5.59-2.25-1.62-23.77-19.98-25.08-18.41.25,5.53-1.27,11.93-3.51,16.99-1.29,2.92-8.53,11.75-8.54,12.5-.01,2.5,7.37,6.15,9.48,8.56,2.97,3.39,5.09,8.74,6.56,12.94,1.29,3.65,1.12,10.56-4.15,10.28-.83-.05-1.07-1.22-.85-2.28l-.72-1.11c1.09-7.75,1.17-10.18-4.66-15.88-12.06-6.75-10.76-12.36-5.62-23.02l-.89-2.52c4.26-7.13,2.82-14.77.43-22.27l1.46-2.21,1.6-.26c3.18,4.88,20.04,6.12,9.6-.97l-3.2-4.77c-2.23,2.22-5.74-1.52-4-4-1.19-1.27-1.53-2.27-1-3,8.6,3.35,11.93,10.39,18.52,15.98,9.36,7.94,21.36,15.06,30.48,23.02Z"/>
  <path class="cls-116" d="M206,356c1.06.27,1.46.79,2,1,.68.76.63,2.43,1,3-1.77.27-3.93-.08-6.49-1.05-1.1,1.41-2.27,2.43-3.51,3.05h-1c-.18,2.64-1.04,2.42-2,0l-1.52,1.49c-2.15-1.34-5.21-.3-6.49,1.8-1.91,5.92-4.24,8.15-6.99,6.71-.94-2.05-3.09-.42-4.37.13-5.65,2.43-12.15,5.94-17.63,8.87-8.35,2.98-4.69-4.09,0-7,10.21-6.08,20.36-10,31-15,2.56-1.2,4.88-3.7,6.54-4,1.82-.33,7.46.5,9.46,1Z"/>
  <path class="cls-102" d="M257,396l17.83,10.16c1.71,16.47-19.26-.5-24.83-4.16,5.57.16,9.38,5.55,14.99,4.99,2.13-2.04-6.37-9.57-7.99-10.99Z"/>
  <path class="cls-165" d="M305,384l6.74-9.02c3.63-1.28,4.97.6,3.26,4.02-4.51,7.23-6.75,10.35-12,17-5.85,4.24-6.43-1.71-3-6,1.75-1.97,3.09-3.95,5-6Z"/>
  <path class="cls-25" d="M303,396c-1.97,2.49-5.05,7.87-7,10-.73.8-2.77,1.87-4,3-4.41,3.7-6.02.31-3.43-3.98l5.43-8.02c1.93-2.44,3.94-4.68,6-7-.72,3.64-2.11,6.29,3,6Z"/>
  <path class="cls-2" d="M313,371c1.87-5.69,10.74-11.79,8-2-2.18,4.13-3.72,6.35-6,10-1.11-7.14-7.48,2.3-10,5,2.01-4.14,5.05-9.56,8-13Z"/>
  <path class="cls-26" d="M327,357c2.61,1.26,1.89,2.97-1,3-1.23,3.25-3.42,6-5,9,.4-7.17-5.59-.8-8,2,.72-5.24,5.91-9.77,8-14,1.91-1.31,4.11-1.3,6,0Z"/>
  <path class="cls-136" d="M314,413c1.92.41,5.09,2.16,7,3l-28-1c7.84-3.25,12.53-3.82,21-2Z"/>
  <path class="cls-35" d="M294,397c-.28,4.05-4.34,5.61-4.96,9.55-.51,3.24.43,2.49,2.96,2.45-1.22,1.13-2.17,4.02-4.5,4.03-8.33.04,5.53-14.8,6.5-16.03Z"/>
  <path class="cls-12" d="M220,441c-1.73-.86-4.71.11-4.9-.03-.45-.34-.65-3.06-1.1-3.97.28-.87.62-.86,1,0,2.23,3,5.99-5.34,5-8,1.62,4.64,3.68,6.91,0,12Z"/>
  <path class="cls-129" d="M175,392l1.89.89c6.02,10.64,17.7,17.97,24.75,4.15l2.36-.04c1.91,2.14-1.18,5.33-1.62,7.66-1.87,10.09,4.37,9.47,9.6,14.85,5.73,5.89,6.12,9.97,3.01,17.49h-1c-2.7-5.57-12.02-23.9-18.45-24.06-4.03-.1-9.06,2.46-13.94.12-1.16.37-2.21,4.37-2.61,5.94l-2.17-1.31c2.27-11.65,2.51-13.44.73-5.35l-4.34,9.33-2.22.34c-.79-4.03,3.35-10.22,3.02-13.47-.63-6.13-11.06-3.21-5.02-18.53,1.55,1.29,2.48,3.5,2.79,6.64-.13-3.71.93-5.26,3.21-4.64Z"/>
  <path class="cls-10" d="M150,443c-1.39,1.28-2.93.53-4.62-2.24,1.15,2.66,1.03,4.74-.38,6.24-.21,1.19-.88.86-2-1l-2.39-.38c-4.1-7.7-8.09-14.65-17.75-15.39l-.86-2.23c-4.34-1.54-8.71-2.28-13.12-2.22-1.62,1.75-5.26,5.17-7.88,4.22-1.12-.88-2.45-.32-3.9.91-2.61,4.08-5.31,5.78-8.1,5.09v-1c.93-1.17,1.64-3.94,3.49-6.01,2.38-2.66,7.31-7.97,10.51-8.99,8.11-2.22,27.63.6,34.86,4.18,5.02,2.49,11.41,12.39,13.17,17.69.08.23-.4.65-1.03,1.13Z"/>
  <path class="cls-145" d="M196,362c.52.62,1.29,1.58.97,2.1-2.14,3.49-17.99,27.08-19.5,27.86-.78.4-1.66.3-2.47.05-1.81,1.15-.26,8.06-2.5,7.98-2.71-.1-4.41-7.5-3.5-9.98,2.82-7.14,7.38-12.04,12-18,.27-.35,1.41-.67,2.02-1.45,2.8-3.6,2.33-9.33,9.57-9.65,2.07-.09,2.83,1,3.42,1.09Z"/>
  <path class="cls-145" d="M171,422c1.81-6.03,7.12-10.89,5.01-18,9.51,1.34,1.57,9.01,2.99,15-1.47,5.68-1.21,8.4,0,14,2.35,5.18-3.67,11.64-7,6-1.26-6.84-3.49-8.69-1-17Z"/>
  <path class="cls-128" d="M110,409c-4.24,2.77-5.61,5.51-11,8-3.59-.47-6.99,2.61-8.89-1.7-.43-4.43,3.91-3.81,6.89-5.3,2.51-1.25,4.63-2.55,7-4,3.94-2.3,9.97-1.81,6,3Z"/>
  <path class="cls-54" d="M155,449c-3.33,2.15-7.17-3.28-5-6-.54-5.21-7.52-15.18-11.94-17.56-5.26-2.84-13.35-2.75-19.31-3.69-5.57-.88-9.32-3.79-15.75-1.75,1.04-1.7,2.71-1.85,4.48-2.02,6.64-.64,25.86,2.16,31.43,5.61s14.75,18.74,16.09,25.41Z"/>
  <path class="cls-69" d="M118,404c-1.81-.75-4.02-2.21-5-4,2.79-1.69,11.86-8.75,15.02-6.54,5.06,3.55-8.08,9.27-10.02,10.54Z"/>
  <path class="cls-66" d="M159,374c-1.9,2.68-5.89,7.96,0,7-1.56.83-11.81,9.12-13,3.48-.7-3.3,10.61-9.06,13-10.48Z"/>
  <path class="cls-159" d="M113,400h5.01s0,4,0,4c-2.63,1.71-5.42,3.31-8,5,.09-3.58-3.19-3.16-6-3,3.03-1.85,5.89-4.12,9-6Z"/>
  <path class="cls-114" d="M172,441c.09-.47.09-1.52,0-2,3.38,2.57,6.55-2.8,7-6,.21.96,1.92,2.39,1.99,4.61.15,4.68-5.7,7.31-8.99,3.39Z"/>
  <path class="cls-100" d="M347,370c-1.1,1.29-1.44,1.28-1.01-.03,3.5,13.67,7.59,27.18,12.26,40.55l-.25,1.48c.13,1.47-.35,2.47-1.73,2.05l-5.27-7.05c-2.52-6.77-5.02-14.05-7-21-2.16-4.56-3.88-9.23-5.16-14.02l1.16-.98c-.67-3.37-2.44-7.71,1.48-9.78,4.05,1.02,4.19,5.56,5.52,8.78Z"/>
  <path class="cls-76" d="M329,346c2.55-.41,4.26-.29,5.38,2.28-1.72,4.75-1.9,10.76,1.62,14.72.73,2.34,2.42,6.06,4,8,.86,4.32,2.74,10.56,4,15-5.85-8.59-7.84-21.13-18-26,.32-.85.77-2.15,1-3,.39-1.46,1.37-2.4,1.04-4.43-.45-2.7-4.04-3.29-2.04-5.57.5-.03,1.98-.81,3-1Z"/>
  <path class="cls-14" d="M351,407c2.27.87,3.95,6.18,7,5,.75.11,1.39.28,1.62.68,1.02,1.8,1.95,4.7,2.6,6.77,1.64,5.2,4.24,15.59.78,19.55-3.99-5.57-2.29-11.02-4.49-17.01-1.64-4.46-5.26-8.96-7.51-14.99Z"/>
  <path class="cls-148" d="M313,473c-1.01.23-1.38,2.63-5.02,1.59-3.26-.93-8.22-7.1-9.61-7.37-2.5-.49-11.48,3.62-15,3.72-9.74.29-9.03-18.98-8.37-25.43,1.12-11,10.15-21.53,21.45-22.55,15.17-1.37,24.92.47,32.54,14.04,3.03,8.68,3.05,19.2,0,28-2.13,4.27-1.85,6.2-7,7-3.51-1.73-5.81-1.25-9,1Z"/>
  <path class="cls-144" d="M333,473c-.3.63-.67,1.4-1,2-6.05-1.25.39-11.69.92-15.59.67-5.01-.17-8.89-.92-13.41-1.78-.59-2.21-5.62-1-7,1.87-5.21,7.46,5.87,7.54,6.47.82,6.46-2.66,21.43-5.54,27.53Z"/>
  <path class="cls-110" d="M331,439c.31.98.71,5.24,1,7,.44,7.97.52,11.95-3,19,2.23-9.73.89-18.3,0-28,.39.7,1.87,1.61,2,2Z"/>
  <path class="cls-61" d="M322,472c-2.84.44-5.88.28-9,1,2.2-4.05,6.52-5.36,9-1Z"/>
  <path class="cls-21" d="M324,19l1.52-2.15c4.94-.95,9.66,21.7,10.48,26.15l2.06.81c3.48,12.42,8.42,24.51,14.82,36.26,2.41,7.13,4.66,14.37,5.12,21.93,3.73,4.86,4.18,15.32,2,21-2.76,3.99-11.4,6.02-12-1-1.24-.69-3.03-1.92-2-3l-1.52-1.86c1.18-6.13-11.46-12.94-7.91-3.94l-1.58,1.8c-2.56,2.19-7.17-3.63-6-6,.25-2.33,1.25-4.66,3-7-.81-.11-1.8-.37-1.97-1.05-1.11-4.34-2.6-5.65-8.29-6.87-.92-.2-1.85-.13-2.71.29-3.11,3-5.45,3.54-7.03,1.63-4.33,5.56-12.06-1.25-9-8-2.04-.22-1.96-1.23,0-2,1.4-15.28,11.96-27.79,16.28-42.22,2.39-7.99,2.73-16.66,4.72-24.78Z"/>
  <path class="cls-152" d="M337,32c2.29,5.41,1.96,9.07-1,11-4.71-6.71-5.59-16.73-8.92-23.59-1.24-2.57-1-1.54-3.08-.41.4-1.62.89-2.75,2-4,9.4,7.09,6.9,7.76,11,17Z"/>
  <path class="cls-86" d="M301,68c-.36,6.09-2.47,10.12-2.01,16.53.21,2.85,2.46,1.04,4.01,1.47-.06.65,0,1.35,0,2,.27,7.31-1.4,9.64-5,7-.53.06-1.05.07-1.51-.08-2.2-.75.96-17.12,1.51-19.92,1.1-3.58,1.79-4.23,3-7Z"/>
  <path class="cls-72" d="M310,49c-1.25,3.2-3.66,6.94-5,10l-1-3c.82-1.5,8.65-23.81,9.99-22-.2,5.16-2.12,10.23-3.99,15Z"/>
  <path class="cls-125" d="M56,119c-1.71,2.05-1.97,14.88-4.49,14.98-5.08-1.27-.63-6.67-3.51-9.98-.03-1,0-2,0-3,.02-3.66-.03-7.34.01-10.99,1.75-.23.94,2.27.99,3.48.12,2.83-.09,5.69,0,8.51,8.41-.37,5.28-8.13,5.94-13.6.17-1.46,1.03-2.23,1.06-2.39-.06,4.32.08,8.68,0,13Z"/>
  <path class="cls-146" d="M83,29c.32,0,1.47-1.21,2.77.23.84.93.92,2.58,1.23,3.77-.99-1.14-3.42-1.96-4-4Z"/>
  <path class="cls-75" d="M171,54.99c-8.62-2.43-20.65-1.3-20.01,10.01-13.24-13.24,11.72-18.87,20.01-10.01Z"/>
  <path class="cls-58" d="M337,32c1.49,3.36,2.71,6.71,6,9,3.55,8.53,6.59,17.42,10,26,4.01,11.16,6.32,22.4,6.92,33.73l-1.92,1.27c-2.64-15.83-11.69-29.38-17.46-44.04-1.58-4.01-4.42-10.84-4.54-14.96-.1-3.58,1.68-7.23,1-11Z"/>
  <path class="cls-78" d="M353,67c4.96,12.46,9.71,19.24,11.88,33.62.61,4.04,2.56,19.83,2.11,22.78-.05.3-1.8,5.37-2,5.59-2.05,2.28-2.11-5.37-4.99-4-1.88-.6-1.85-1.38,0-2-1.17-7.28-1.21-14-2-21-.23-2,.13-4.21-.11-6.38-1.02-9.28-4.51-19.18-4.89-28.62Z"/>
  <path class="cls-167" d="M360,123c.1.63-.12,1.4,0,2,.06.32-.07.68,0,1-4.6.91-7.75,4.14-12,0-.43-1.3-.61-2.69-1-4,.3-.51.64-.5,1,0,6.27,6.7,4.44,2.2,12,1Z"/>
  <path class="cls-55" d="M347,370c5.09,12.35,7.47,25.47,12,38,1.17,3.63.83,4.96-1,4-4.5-13.86-11.55-25.06-12.98-40.53-.24-2.54-.45-3.17,1.98-1.47Z"/>
  <path class="cls-112" d="M363,439c.03-8.52-2.36-18.85-5-27,.93-.36,1.2-2.96,1-4,1.5,4.16,5.24,10.26,6.78,14.72,2.13,6.13,6.72,15.02-2.78,16.28Z"/>
  <path class="cls-120" d="M336,348c-4.09,2.56-1.18,11.22,0,15-8.66-3.91,2.22-16.32-7-17,3.87-.72,3.7-2.58,7,2Z"/>
  <path class="cls-1" d="M392,312c-.64,2.25-.98,4.59-1,7-1.14,3.94-3.15,8.25-7,4-.79-5.86,2.91-11.47,8-14-.06.99.12,2.03,0,3Z"/>
  <path class="cls-23" d="M391,319c.24-2.19-.9-5.58,1-7-.35,2.98-.08,3.81-1,7Z"/>
  <path class="cls-80" d="M89,436c2.98-1.25,5.57-6.26,8.02-7.48,1.49-.74,4.63-1.72,3.98,1.48.8,1.52.1,3.16-2.1,4.94l-3.9,6.06c-.4,3.95-1.4,6.95-3,9-2.16,7.97,1.58,25.76,11.25,26.42,3.4-.8,6.46-.68,9.17.36-.77,4.07.09,6.48,2.58,7.22,1.43-1.45,3.3-1.5,5.61-.16,2.13-1.09,3.93-1.37,5.39-.84l6.99.49c-3.85,4.36-6.62,10.81-13.46,9.49-4.93-.95-5.32-7.79-6.09-8.04-3.24-1.04-5.6,4.32-9.45,6.05-4.42.25-8.76-1.75-13-6-.32-.45-1.27-.88-2-2-9.77-15.12-9.26-31.83,0-47Z"/>
  <path class="cls-168" d="M150,443c1.71,1.88,1.56,4.21,5,6,2.29,11.34.99,32.59-11,38-3.46.56-6.49-1.48-7-5l.6-2.28c13.05-4.62,9.54-22.58,7.4-32.72-1.34-3.96-2.11-8.17-3.99-11.99,1.29-1.35,7.93,6.82,8.99,7.99Z"/>
  <path class="cls-127" d="M145,447c.44,1.31,1.97,3.11,2.47,5.04,2.49,9.66,1.2,26.94-10.47,29.96-5.88,1.53-5.44-1.53-7.5-1.68-1.85-.13-2.73,2.17-3.5,2.68-6.56,4.32-4.61,2.84-11,1-2.45-.18-3.38-2.6-2.78-7.28-2.19-.5-3.93-1.08-5.22-1.72-1.28-5.28,7.87-7.1,10.59-2.53l4.98,7.62c4.56-7.43,8.65-8.57,16.94-5.54,5.57.78,4.38-22.04,2.23-26.2l1.26-2.35,2,1Z"/>
  <path class="cls-5" d="M104,491c-7.26,3.27-9.63-1.26-13-6,6.88-.58,7.14,6.53,13,6Z"/>
  <path class="cls-43" d="M283,90c-5.6,5.43-4.2-3.12-9-5,.56.25,1.87-.1,2.93.54,2.16,1.3,3.16,4.43,6.07,4.46Z"/>
  <path class="cls-24" d="M194,281c-4.15,3.08-8.92,3.05-5-3-.45-2.25-1.45-4.25-3-6l-4.79-.39c-1.86.45-1.59,2.69-.34,4.32l5.38,7.5c.66,1.04-.2,1.84-1.25,2.57-1.92,1.66-3.74,2.76-6,1-.63.34-1.37.57-1.79.14-3.77-3.89-10.1-11.6-8.21-17.14,3.71-7.59,25.18-8.36,29.07-1.53,2.26,3.97-1.9,9.19-4.07,12.53Z"/>
  <path class="cls-103" d="M179,287c.3,1.15.22,6.17-.03,7.48-1.08,5.76-10.5,6.53-8.97-.48,3.89,2.6,7.95,5.94,7.08-2.53-.63-6.12-12.41-12.61-8.08-21.47-2.12,5.82,9.15,13.76,10,17Z"/>
  <path class="cls-132" d="M186,272c-3.58,2.79-1.45,5.62,3,6v4s5-1,5-1c-.81,1.24-.81,1.52-2,3-3.39-2.53-4.85,2.02-7,4-.12-.61.12-1.39,0-2-1.37-6.73-15.11-17.89,1-14Z"/>
  <path class="cls-106" d="M298,95c1.71-.19,3.42.52,5.14,2.1,4.87,1.97,10.63,3.52,15.86,3.9,1.55-2.67,7.55.16,7,3,2.72,1.15,3.05,2.48,1,4,1.56,1.22,2.13,2.48,0,3-1.41-2.41-1.78-5.8-3.7-6.8-5.46-2.85-11.66.26-16.53-.39-1.75-.23-10.63-4.72-11.29-5.79-2.44-3.96,1.1-18.4,2.52-23.02,0,6.24-2.95,14.12,0,20Z"/>
  <path class="cls-117" d="M329,109c2.13,2,3.27,3.9,6,6,1.47-1.05,3.38-.65,5.75,1.22,3.34-.35,5.09.58,5.25,2.78.21.07,1.43,2.39,2,3h-1c-3.46-3.79-9.08-.74-12.98-2.52-2.55-1.16-5.65-6.16-7.02-8.48-.12-.96.17-2.12,0-3,1.35-2.33,2.35-1.67,2,1Z"/>
  <path class="cls-122" d="M146,229c.13,2.32,1.93,3.45,3,5,.26.38.81.67,1,1l-.03,1.43c-5.01.25-10,.77-14.97,1.57-1.1-.04-2.52.3-3-1,.83-1.93,1.71-4.56,1.9-6.62.22-2.49-1.51-8.81.66-9.36,5.05.26,7.49,5.24,11.44,7.98Z"/>
  <path class="cls-156" d="M131,239c12.11,4.66,2.75,8.57-5.48,6.97-4.43-.86-3.52-5.14-4.52-7.97,3.99,5.17,5.72,7.46,10,1Z"/>
  <path class="cls-98" d="M90,93c-1.41-5.22-1.22-10.81-2.68-15.82-2.96-10.17-13.03-9.99-11.32-26.18.25-2.38.44-4.36,2.5-5.98,5.45,3.75,3.99,10.93,6.73,16.25,4.65,9.02,8.98,9.05,10.69,22.31.62,4.85-.13,9.25-5.92,9.42Z"/>
  <path class="cls-142" d="M141.18,283.82c-1.09-.65-4.08-7.06-2.75-8.89,1.51-2.09,13.19-2.01,13.23,3.56.02,3.17-8.53,6.48-10.47,5.33Z"/>
  <path class="cls-48" d="M228,238l-5.74-2.49c5.9-6.88,5.18-17.32,11.34-23.41,5.95-5.88,23.59-12.51,31.86-13.14,5.51-.42,23.77.62,28.25,2.83,3.43,1.69,5.24,3.68.5,4.9-4.43,1.15-19.15.86-20.75,3.27-.47.71-1.42,14.65-1.46,17.04.88.19.84.53,0,1-5.78,11.01-10.67,7.63-15-2-.24-.97-.84-1.52-1-2-2.02-1.33-3.16-3.78-3.41-7.36l-1.59-.64c-.68,3.7-7.18,11.31-11,11-.31.84-.64.84-1,0-10.64-.66-5.77,8.28-11,11Z"/>
  <path class="cls-124" d="M272,227c3.95-4.24,3.75-11.48,3.99-17.01,6.86-.57,13.36.63,20,2.02-6.58,7.78-12.75,16.68-23.48,19-.97.02-.43-2.06-.51-3.02-.03-.33,0-.67,0-1Z"/>
  <path class="cls-134" d="M118.99,239.99c-9.4.47-14.78-9.86-21.97-14.49,0-1.41,14.48-4.71,17.02-5.07l4.95,19.57Z"/>
  <path class="cls-77" d="M150,235c.27.46,1.66.97.99,2.49-.88,2.41-13.01.62-15.99.51,4.42-5.11,10.09-.93,15-3Z"/>
  <path class="cls-8" d="M249.75,232.24c2.52,2.3-1.75,6.24-4.27,6.74-4.3.85-9.32-.39-12.48-3.49.67-5.66,14.18-5.6,16.75-3.25Z"/>
  <path class="cls-92" d="M251,216c.34-.22.12-1.53,1.99-1,1.27,2.92,2.03,5.99,3.01,9-.06,2.13.76,6.16-1.64,6.93-4.5-1.35-9.67-.3-13.86-.92-1.98-.3-3.08-1.17-1.5-3,.35.02.91-.09,1,0,9.99,1.24,13.18-1.64,9.58-8.61l1.42-2.39Z"/>
  <path class="cls-28" d="M198,362c1.56.4,2.35,1.64,3,3,2.67-.31,2.93.14,1,2,1.69.25,4.14,1.26,3,3,3.04,10.85,5,16.73-1,27-4.42,7.56-9.44,12.84-18.37,7.87-2.6-1.45-11.8-9.15-10.63-12.87l21-30c.64.1,1.53-.16,2,0Z"/>
  <path class="cls-88" d="M209,360c.63.95,2.98,3.06,4,4,10.19,14.7-3.65,9.06-11,3-.4-.54-.62-1.38-1-2l-2-3c.18-6.77,6.23-6.1,10-2Z"/>
  <path class="cls-84" d="M205,370c-1.18-1.15-1.78-1.34-3-3,3.04-2.35,10.04,6.48,11.99,5,1.81-1.37-.43-6.16-.99-8,2.4,2.22,9.19,5.15,8.67,9.52-.38,3.18-10.03,1.57-12.27.59-1.73-.76-2.94-2.69-4.4-4.11Z"/>
  <path class="cls-105" d="M201,365l-3-3c.3.1.7-.1,1,0,2.21.77,1.43,2.07,2,3Z"/>
  <path class="cls-32" d="M122,428c3.76.81,8.37,1.67,11.51,3.99,2.64,1.95,8.19,10.88,9.49,14.01,3.2,7.71,3.32,19.42.92,27.42-2.08,6.95-8.71.15-14.2,1.77-3.47,1.02-5.51,10.62-9.59,5.18s-4.78-13.14-13.13-5.36c-7.38,5.72-14.73-6.52-14-13-.47-6.7-.36-13.61,2-20,2.45-5.68,5.39-10.71,11.61-12.69.35-4.11,2.54-4.26,6.22-3.52l9.17,2.21Z"/>
  <path class="cls-37" d="M122,428c-1.55-.34-12.55-2.49-12.99-2.01-.16.17.31,3.01-.91,4.6-.96,1.25-4.66,1.99-6.61,3.39-2.9,2.08-4.36,5.33-6.49,8.01v-1c1.81-4.25,2.94-7.39,6-11,6.6-7.79,12.15-4.84,21-2Z"/>
  <path class="cls-17" d="M332,102c-.67,4.58-3.69,6.89-6,2-2.17-.67-4.8-2.24-7-3-4.37.1-14.69-1.54-7-5,3.94-.43,5.1-4.95,10.27-3.84.58.12,8.52,3.86,8.83,4.23,1.28,1.54.9,3.78.89,5.6Z"/>
  <path class="cls-13" d="M346,119c-5.14-1.78-4.12,1.28-11-4l-1.92-6.92c6.77-4.37,15.74,4.43,12.92,10.92Z"/>
  <path class="cls-13" d="M312,96c-2.99,4.68,3.08,3.65,7,5-6.07.41-17.85.28-21-6,4.13-.03,3.04-4.64,5-7,.09,5.76,2.89,8.66,9,8Z"/>
  <path class="cls-13" d="M329,109c-.44-.41-1.44-.61-2-1-.22-1.13-1.33-2.49-1-4,3.51,1.08,3.5,1.64,6-2-.01,3.09.44,5.58-3,7Z"/>
  <path class="cls-15" d="M93,462c.89,2.82,5.07,10.69,7.44,12.05,2.63,1.51,4.07.71,6.56.95,1.85.17,5.36-.68,6.58.97,1.14,1.53-2.89,6.57,1.42,8.03-1.02-.29-2.79.21-4,0,2.97-12.39-4.56-4.92-10.28-6.19-8.68-1.92-10.59-18.3-9.77-25.4.16-1.41,1.01-2.15,1.05-2.4l1.05.77-.05,11.23Z"/>
  <path class="cls-9" d="M95,442l-2,20c-1.35-4.26-1.11-7.47-1-12,.73-4.05,1.58-5.65,3-9v1Z"/>
  <path class="cls-4" d="M186,272c4.44.49,5.03,1.8,3,6-.23.48-2.3,2.97-2.5,2.98-1.23-1.28-6.92-7.62-5.5-8.98,1.63.11,3.38-.18,5,0Z"/>
  <path class="cls-93" d="M251,216l2.98,10.96c-3.99.94-8.33,2.68-12.54,2.13-2.4-.32-1.16-1.81-1.43-2.09,3.14-3.51,7.06-8.52,11-11Z"/>
</svg>