<?xml version="1.0" encoding="UTF-8"?>
<svg id="_Слой_2" data-name="Слой 2" xmlns="http://www.w3.org/2000/svg" viewBox="0 0 179.93 122">
  <defs>
    <style>
      .cls-1 {
        fill: #ffffff;
      }
    </style>
  </defs>
  <g id="Layer_1" data-name="Layer 1">
    <g>
      <path class="cls-1" d="M118.42,42.51C97.58,10.41,67.93-7.33,52.2,2.89c-7.57,4.92-10.54,15.42-9.25,28.57.49-1.6,1.23-3.07,2.22-4.38,9.13-12.05,36.57-6.62,61.29,12.11,9.68,7.33,17.51,15.62,22.9,23.71-2.88-6.73-6.54-13.61-10.95-20.4Z"/>
      <path class="cls-1" d="M61.46,79.49c-4.4-6.78-8.06-13.66-10.95-20.39,5.39,8.09,13.22,16.38,22.9,23.71,24.72,18.73,52.16,24.16,61.29,12.11,1-1.32,1.73-2.78,2.22-4.38,1.29,13.15-1.68,23.66-9.25,28.57-15.73,10.21-45.37-7.52-66.22-39.62Z"/>
      <path class="cls-1" d="M140.91,52.86c3.21,7.09,5.66,14.17,7.33,21.02L179.93,2.58h-77.96c5.57,4.32,11.02,9.43,16.19,15.24h38.32l-15.58,35.05Z"/>
      <path class="cls-1" d="M23.45,104.18l15.55-34.99c-3.21-7.09-5.66-14.15-7.34-21.01L0,119.42h77.9c-5.57-4.32-11.02-9.43-16.18-15.24H23.45Z"/>
    </g>
  </g>
</svg>